<svg width="65" height="64" viewBox="0 0 65 64" fill="none" xmlns="http://www.w3.org/2000/svg">
<g id="003-bacteria" clip-path="url(#clip0_96_2318)">
<g id="Group">
<path id="Vector" d="M51.0479 6.44348L54.7331 8.17413L51.0258 16.0685L47.3406 14.3378L51.0479 6.44348Z" fill="#7A8C98"/>
<g id="Group_2">
<g id="Group_3">
<path id="Vector_2" d="M44.834 33.8369L43.1062 38.602C42.4014 40.5468 41.9638 42.5775 41.8097 44.6392C41.7724 45.1423 41.7262 45.6956 41.6723 46.2861C41.0908 52.634 39.4978 63.3707 35.363 63.7853C34.2115 63.9008 33.1679 63.3308 32.2334 62.3398C29.3156 59.2512 27.4606 52.0627 26.7354 48.7738C26.3182 46.5582 22.9293 46.5582 22.5108 48.7738C21.5532 53.1166 18.6263 64.2589 13.8844 63.7853C9.36336 63.3321 7.88188 50.544 7.43777 44.6392C7.28239 42.5775 6.84476 40.5468 6.13997 38.602L4.41338 33.8369C3.93974 32.5314 3.70996 31.1784 3.70996 29.8369C3.70996 26.7997 4.88964 23.8203 7.09635 21.5842C10.1811 18.4584 14.7522 17.3159 18.9447 18.6201L21.6507 19.4622L23.6648 20.0886C23.9767 20.185 24.2989 20.2337 24.6224 20.2337C24.9459 20.2337 25.2694 20.185 25.5826 20.0874L30.3015 18.6201C31.4491 18.2632 32.6249 18.0899 33.7905 18.0899C36.8855 18.0899 39.9099 19.3133 42.1498 21.5841C45.3334 24.8087 46.3771 29.5763 44.834 33.8369Z" fill="#FFF9E2"/>
</g>
</g>
<path id="Vector_3" d="M17.1351 48.7736C16.2097 52.0056 14.4631 59.1994 11.6172 62.3137C12.2719 63.163 13.0228 63.6983 13.8843 63.7845C18.6268 64.2587 21.5538 53.1164 22.5113 48.7736C22.7204 47.6656 23.672 47.1117 24.6235 47.1117C24.2052 44.8964 18.5992 43.6614 17.1351 48.7736Z" fill="#FFF5C6"/>
<path id="Vector_4" d="M44.834 33.837L43.1061 38.602C42.4014 40.5468 41.9637 42.5776 41.8096 44.6392C41.7723 45.1424 41.7261 45.6957 41.6723 46.2862C41.0907 52.6341 39.4977 63.3708 35.3629 63.7853C34.2114 63.9009 33.1678 63.3309 32.2333 62.3399C34.4849 59.4503 35.6004 52.8407 36.137 47.8753C36.2166 47.1373 35.7198 46.4582 34.9893 46.317C33.6119 46.0499 32.2448 45.6097 30.9162 44.9858C22.2771 40.9294 19.0011 31.7445 22.9022 23.0335C23.625 21.4199 25.5826 20.0875 25.5826 20.0875L30.3014 18.6202C31.4491 18.2633 32.6249 18.09 33.7905 18.09C36.8854 18.09 39.9098 19.3134 42.1498 21.5841C45.3333 24.8088 46.377 29.5763 44.834 33.837Z" fill="#FFF5C6"/>
<path id="Vector_5" d="M42.5532 46.6248C52.0976 46.6248 59.8349 38.8875 59.8349 29.3431C59.8349 19.7987 52.0976 12.0614 42.5532 12.0614C33.0088 12.0614 25.2715 19.7987 25.2715 29.3431C25.2715 38.8875 33.0088 46.6248 42.5532 46.6248Z" fill="#9FACBA"/>
<path id="Vector_6" d="M49.8994 13.7005C46.9344 12.308 43.7745 11.8312 40.7388 12.1546C42.6027 12.3527 44.466 12.8589 46.2581 13.7005C54.8974 17.7576 58.6119 28.05 54.5547 36.6893C51.8901 42.3634 46.5357 45.913 40.7266 46.5318C47.8482 47.2891 54.9805 43.5364 58.196 36.6893C62.2532 28.05 58.5386 17.7576 49.8994 13.7005Z" fill="#8D9CA8"/>
<path id="Vector_7" d="M54.2022 29.8613C54.2022 15.9823 39.9923 15.783 39.9923 15.783C35.7805 16.5776 32.0136 19.3073 30.0566 23.4747C26.8207 30.3651 29.794 38.6034 36.6844 41.8393C37.7502 42.3397 38.8482 42.6914 39.9549 42.9032C39.9548 42.9033 54.2022 41.5235 54.2022 29.8613Z" fill="#EAF6FF"/>
<path id="Vector_8" d="M48.4215 16.847C45.6917 15.565 42.7506 15.2584 39.9926 15.783C41.0992 15.995 42.1973 16.3465 43.263 16.847C50.1534 20.0828 53.1267 28.3211 49.8908 35.2116C47.9369 39.3722 44.1589 42.1038 39.9551 42.9033C46.0039 44.0614 52.314 41.0364 55.0493 35.2116C58.2852 28.3211 55.3119 20.0828 48.4215 16.847Z" fill="#C8EFFE"/>
<path id="Vector_9" d="M60.1127 0C60.7135 0 61.087 0.652704 60.7827 1.17071L56.604 8.28216C56.1663 9.02757 55.2316 9.31729 54.4488 8.94907L54.3921 8.92203L50.7061 7.19171L50.6494 7.16467C49.8667 6.79644 49.4921 5.8939 49.7869 5.08032L51.2624 0.997249C51.4787 0.39875 52.0468 0 52.6832 0L60.1127 0Z" fill="#62DBFB"/>
<path id="Vector_10" d="M55.9135 0C56.1735 0.224172 56.2365 0.601988 56.0635 0.898434L52.7227 6.62174C52.4078 7.15794 51.8357 7.45662 51.248 7.44591L54.3927 8.92216L54.4494 8.9492C55.2322 9.31742 56.1669 9.0277 56.6046 8.28229L60.7833 1.17083C61.0876 0.652704 60.714 0 60.1131 0L55.9135 0Z" fill="#01D0FB"/>
<path id="Vector_11" d="M42.5531 24.6974C44.8886 24.6974 46.782 23.3834 46.782 21.7626C46.782 20.1417 44.8886 18.8278 42.5531 18.8278C40.2175 18.8278 38.3242 20.1417 38.3242 21.7626C38.3242 23.3834 40.2175 24.6974 42.5531 24.6974Z" fill="#FD4755"/>
<path id="Vector_12" d="M42.5531 18.8278C41.8506 18.8278 41.1885 18.9474 40.6055 19.1577C41.9606 19.6467 42.8867 20.6292 42.8867 21.7626C42.8867 22.8958 41.9606 23.8783 40.6055 24.3674C41.1885 24.5779 41.8504 24.6974 42.5531 24.6974C44.8887 24.6974 46.782 23.3835 46.782 21.7626C46.782 20.1418 44.8887 18.8278 42.5531 18.8278Z" fill="#EF3349"/>
<g id="Group_4">
<path id="Vector_13" d="M43.3084 38.4383C42.5315 38.4383 41.962 38.3166 41.9181 38.307C41.3989 38.1927 41.0705 37.6792 41.1848 37.1598C41.2989 36.6416 41.8111 36.3137 42.3291 36.426C42.3568 36.4318 43.7703 36.7211 44.8653 36.2264C45.3497 36.0077 45.9201 36.223 46.1389 36.7076C46.3577 37.1922 46.1423 37.7625 45.6577 37.9812C44.8604 38.3414 44.0017 38.4383 43.3084 38.4383Z" fill="#4F66D0"/>
</g>
<g id="Group_5">
<path id="Vector_14" d="M40.9951 38.9053C40.8599 38.9053 40.7229 38.8931 40.5852 38.8676C36.8528 38.1797 34.2374 35.9364 33.2207 32.5514C33.0151 31.8667 32.8943 31.2023 32.8279 30.5967C32.6683 29.1441 33.9535 27.945 35.3964 28.1774L35.4477 28.1856C36.437 28.3449 37.1847 29.1497 37.2986 30.1451C37.5244 32.3857 38.8419 34.0234 41.3487 34.4395C42.5691 34.6719 43.4232 35.8324 43.2036 37.0552C43.0082 38.1432 42.061 38.9053 40.9951 38.9053Z" fill="#6C7FD8"/>
</g>
<path id="Vector_15" d="M41.3483 34.4397C38.8415 34.0236 37.5239 32.3858 37.2982 30.1453C37.1842 29.1498 36.4364 28.3451 35.4473 28.1857L35.396 28.1775C34.4391 28.0235 33.5521 28.4992 33.1094 29.2607C33.2638 29.526 33.3664 29.8256 33.4031 30.1453C33.6289 32.3859 34.9464 34.0236 37.4531 34.4397C38.6736 34.6721 39.5276 35.8326 39.3081 37.0554C39.217 37.5629 38.9608 37.9981 38.6066 38.3194C39.2247 38.5551 39.8853 38.7387 40.5851 38.8677C40.7228 38.8931 40.8597 38.9053 40.9949 38.9053C42.0608 38.9053 43.0081 38.1434 43.2035 37.0554C43.4227 35.8326 42.5686 34.6721 41.3483 34.4397Z" fill="#4F66D0"/>
<g id="Group_6">
<path id="Vector_16" d="M25.5824 20.0874C25.0099 20.3301 20.4117 22.2299 17.3694 22.2299C16.9895 22.2299 16.6351 22.2003 16.3142 22.1349C15.7943 22.0271 15.4593 21.5175 15.567 20.9963C15.6736 20.4765 16.1832 20.1414 16.7044 20.2479C17.8353 20.4816 19.8468 20.022 21.6503 19.4623L23.6644 20.0887C23.9763 20.185 24.2985 20.2337 24.622 20.2337C24.9455 20.2337 25.2691 20.1849 25.5824 20.0874Z" fill="#FFF5C6"/>
</g>
<g id="Group_7">
<path id="Vector_17" d="M51.1842 30.0089C51.0994 29.7818 50.9878 29.5789 50.8452 29.4235C50.6476 29.2078 50.4075 29.1129 50.066 29.1129H50.0622C49.0583 29.1141 48.8683 29.4889 48.4704 30.5698C48.1213 31.5146 47.5949 32.942 45.7657 33.2219C45.5756 33.2502 45.3896 33.2655 45.2073 33.2655C44.4601 33.2655 43.7862 33.0229 43.2317 32.5505C41.6579 31.2077 41.5925 28.4632 41.5899 28.1551C41.586 27.6237 42.0135 27.1898 42.5449 27.1859H42.5526C43.0814 27.1859 43.5115 27.6121 43.5153 28.1409C43.5218 28.6954 43.7131 30.4324 44.4833 31.0869C44.6477 31.2256 44.9288 31.4014 45.4743 31.318C46.1239 31.2191 46.3061 30.8712 46.6643 29.9034C47.0622 28.8238 47.6631 27.1923 50.0584 27.1872H50.0662C50.4141 27.1872 50.7439 27.2385 51.0495 27.3387L51.913 28.5118L51.1842 30.0089Z" fill="#B289C9"/>
</g>
<path id="Vector_18" d="M53.3553 32.3105C53.3079 32.8394 52.8379 33.2297 52.3104 33.1834C51.7801 33.1359 51.39 32.6687 51.4362 32.1398C51.4684 31.7611 51.4658 30.7573 51.1846 30.0089C51.227 29.1116 51.1808 28.2169 51.0498 27.3387C51.5158 27.4889 51.9278 27.7547 52.2667 28.1244C53.5619 29.5391 53.3796 32.0307 53.3553 32.3105Z" fill="#A274BF"/>
<path id="Vector_19" d="M34.9424 24.954C35.4726 24.954 35.9024 24.5242 35.9024 23.994C35.9024 23.4639 35.4726 23.0341 34.9424 23.0341C34.4122 23.0341 33.9824 23.4639 33.9824 23.994C33.9824 24.5242 34.4122 24.954 34.9424 24.954Z" fill="#C8EFFE"/>
</g>
</g>
<defs>
<clipPath id="clip0_96_2318">
<rect width="63.8" height="63.8" fill="white" transform="translate(0.400391)"/>
</clipPath>
</defs>
</svg>
