<svg width="60" height="60" viewBox="0 0 60 60" fill="none" xmlns="http://www.w3.org/2000/svg">
<g id="006-broken-tooth" clip-path="url(#clip0_96_1707)">
<g id="Group">
<path id="Vector" d="M52.5607 13.5289H37.5569V3.58463C35.149 2.92943 32.616 2.57764 30.0005 2.57764C29.887 2.57764 29.7739 2.57963 29.6609 2.58104C28.6787 3.63326 26.2017 6.58791 24.8137 10.9354C23.7859 14.1551 23.5457 17.4977 24.0997 20.8707C24.7841 25.0359 26.6885 29.2569 29.7608 33.4189C29.4956 33.6572 28.9339 34.2499 28.9446 34.9875C28.9522 35.5154 29.2482 36.0003 29.8247 36.4299V36.6455C30.1099 36.6513 30.3969 36.6553 30.6876 36.6553C51.5139 36.6553 56.962 21.5427 56.9876 21.4715C55.9348 18.5787 54.4316 15.9023 52.5607 13.5289Z" fill="#E80054"/>
<path id="Vector_2" d="M30.0003 33.4472C17.5568 16.7311 27.9659 4.59307 29.9024 2.57861C17.537 2.61986 7.01301 10.4776 3.0127 21.4697C3.0127 21.4698 9.66426 36.3179 30.0003 36.6474V36.3402C28.0196 34.9377 30.0003 33.4472 30.0003 33.4472Z" fill="#CC0053"/>
<path id="Vector_3" d="M51.348 9.46746C51.2055 9.18199 51.0177 8.92136 50.7921 8.69566C50.2366 8.14007 49.483 7.828 48.6973 7.828H45.2105C45.0871 8.09542 44.8246 8.78554 45.0814 9.37511C45.25 9.7623 45.5993 10.0244 46.1196 10.1542C46.1378 10.1587 46.1428 10.161 46.1515 10.1849C46.1527 10.1882 46.1536 10.1923 46.1547 10.1958L46.8906 9.46734C47.1875 9.17343 47.6707 9.19089 47.9455 9.50554L48.9577 10.6641C49.1233 10.8537 49.3628 10.9624 49.6145 10.9624H51.958V10.6896L51.348 9.46746Z" fill="#D3DCFB"/>
<path id="Vector_4" d="M44.6218 7.82804C43.1458 7.82804 42.1872 6.19362 41.6976 5.05175C41.4167 4.39655 40.7778 3.96753 40.0649 3.96753H37.5566C37.557 3.98101 37.5588 3.99437 37.5588 4.00784V7.05753C37.5588 7.53847 37.801 7.98694 38.2032 8.25073L40.1037 9.49714C40.3438 9.65464 40.4886 9.92253 40.4886 10.2098V12.6769C40.4886 13.1475 40.8701 13.5291 41.3407 13.5291H42.4376C42.6621 13.5291 42.8777 13.4405 43.0371 13.2825L46.3273 10.0254C46.2912 9.97772 46.2425 9.94339 46.1768 9.92698C44.5379 9.51823 45.4721 7.82815 45.4721 7.82815H44.6218V7.82804Z" fill="#BEC8F7"/>
<path id="Vector_5" d="M56.9882 21.4697C53.6271 20.5664 51.1154 20.9019 49.3893 21.5233C45.8395 27.8678 45.5921 30.396 45.1646 34.8165C44.4551 42.1516 43.5752 49.7115 38.7466 55.0845C37.0217 57.0037 33.8243 55.6615 34.0753 53.0636C34.473 48.9465 34.9471 43.3479 34.9471 40.0574C34.9471 36.7387 33.2495 33.1649 30.0005 33.1649C29.8609 33.1649 29.7253 33.1738 29.5915 33.1867C29.6477 33.264 29.7036 33.3415 29.7607 33.4188C29.4955 33.657 28.9338 34.2498 28.9445 34.9874C28.9521 35.5153 29.2481 36.0002 29.8246 36.4298V59.248L36.3762 59.2357L36.8477 59.176C37.8832 58.9227 38.8973 58.6151 39.8852 58.2528L41.485 57.4523L58.7042 30.6967L58.7053 30.6988C58.6399 27.4626 58.0393 24.358 56.9882 21.4697Z" fill="#FF4155"/>
<path id="Vector_6" d="M30.0004 36.3402C28.0198 34.9377 30.0005 33.4472 30.0005 33.4472C29.9321 33.3552 29.8654 33.2637 29.7984 33.1719C26.6813 33.3179 25.0539 36.8177 25.0539 40.0575C25.0539 43.3488 25.528 48.9471 25.9258 53.0638C26.1769 55.6628 22.978 57.0028 21.2543 55.0847C16.4267 49.7126 15.5446 42.1376 14.8364 34.8166C14.4089 30.3961 14.1616 27.8679 10.6118 21.5235C8.88566 20.902 6.3741 20.5665 3.01293 21.4698C1.96199 24.3578 1.36129 27.4618 1.2959 30.6974L1.29684 30.6965L16.1724 55.6578L19.1118 57.6989L20.1166 58.2532C21.1022 58.6146 22.114 58.9216 23.147 59.1746L23.6669 59.2596L30.0004 59.2478V36.3402Z" fill="#E80054"/>
<path id="Vector_7" d="M52.1968 10.7867H49.6151C49.4141 10.7867 49.223 10.6998 49.0908 10.5485L48.0785 9.38991C47.9156 9.20358 47.6804 9.09155 47.4332 9.08264C47.1841 9.07456 46.9431 9.16831 46.7673 9.34245L42.9136 13.1576C42.7862 13.2838 42.6172 13.3533 42.4377 13.3533H41.3409C40.9673 13.3533 40.6645 13.0505 40.6645 12.6769V10.2096C40.6645 9.86194 40.491 9.54073 40.2002 9.35018L38.2998 8.10366C37.9472 7.87245 37.7348 7.47905 37.7348 7.05741V4.00772C37.7348 3.55034 37.5389 3.11382 37.1973 2.81018C36.9601 2.59936 36.3642 2.06921 35.7186 1.49452C35.4476 1.25311 35.0619 1.18374 34.7264 1.32225C34.7098 1.32917 34.693 1.33608 34.6764 1.343C33.1623 1.97288 31.5531 2.28893 29.9457 2.2846C29.2881 2.9446 26.3678 6.06811 24.8137 10.9354C23.7859 14.155 23.5457 17.4976 24.0997 20.8706C24.7841 25.0358 26.6885 29.2568 29.7608 33.4189C29.7472 33.431 29.7325 33.4448 29.7173 33.4588C30.8742 33.3733 32.0634 33.8114 32.8874 34.776C33.8419 35.8934 34.6649 37.5763 34.6649 40.0574C34.6649 43.2945 34.2076 48.7586 33.7943 53.0365C33.5185 55.8907 37.04 57.406 38.9567 55.2731C41.0494 52.9445 43.1521 49.3401 44.2021 43.8277C46.7155 30.6317 43.8251 31.0715 51.617 18.2827C52.8511 16.2571 53.4291 14.132 53.4581 12.0762C53.4681 11.3687 52.9045 10.7867 52.1968 10.7867Z" fill="#E9EFFF"/>
<path id="Vector_8" d="M25.3714 1.36242C12.1724 -4.16801 2.28719 8.27602 8.38422 18.2829C16.1761 31.0716 13.2856 30.6319 15.7991 43.8279C16.8545 49.3689 18.9736 52.9821 21.077 55.3095C22.9845 57.42 26.4805 55.8689 26.2069 53.0373C25.7936 48.7593 25.3363 43.2948 25.3363 40.0575C25.3363 37.5764 26.1592 35.8935 27.1138 34.7761C27.8706 33.8902 28.9356 33.4472 30.0006 33.4472C16.3512 15.111 30.199 2.28269 30.199 2.28269L30.1989 2.28234C28.5585 2.31234 26.9148 2.00918 25.3714 1.36242Z" fill="#D3DCFB"/>
<path id="Vector_9" d="M20.1164 58.2532C19.6745 57.9678 19.2623 57.6188 18.8924 57.207C15.9536 53.9367 13.9567 49.6175 12.9568 44.3692C12.6408 42.71 12.4084 41.2675 12.2295 39.9906C11.4397 34.3557 6.54223 30.5815 1.29656 30.6966C1.29258 30.8936 1.28906 31.0908 1.28906 31.2889C1.28918 43.6724 9.12914 54.2247 20.1164 58.2532Z" fill="#FF4155"/>
<path id="Vector_10" d="M58.7037 30.6967C53.4585 30.5816 48.5614 34.3554 47.7711 39.9899C47.592 41.2668 47.3595 42.7095 47.0433 44.3693C46.0436 49.6179 44.0466 53.9372 41.108 57.207C40.7382 57.6185 40.3264 57.9676 39.8848 58.2529C50.8716 54.224 58.7112 43.672 58.7112 31.2888C58.7112 31.0908 58.7077 30.8936 58.7037 30.6967Z" fill="#FF7186"/>
<path id="Vector_11" d="M34.3705 58.6657C32.0238 57.6341 30.667 55.3153 30.914 52.7584C31.4749 46.9542 31.7712 42.5625 31.7712 40.0575C31.7712 38.6421 31.4064 37.4974 30.687 36.6552C30.453 36.3811 30.1561 36.3402 29.9998 36.3402C29.8437 36.3402 29.5469 36.3811 29.3129 36.6551C28.5934 37.4974 28.2287 38.642 28.2287 40.0574C28.2287 42.5618 28.525 46.9538 29.0858 52.7583C29.3328 55.315 27.9761 57.6338 25.6296 58.6656C24.8471 59.0095 24.0335 59.1769 23.2327 59.1769C23.2039 59.1769 23.1753 59.175 23.1465 59.1747C25.3429 59.7127 27.6377 60 30 60C32.36 60 34.6528 59.7131 36.8472 59.1762C36.0206 59.1877 35.1791 59.0211 34.3705 58.6657Z" fill="#FF7186"/>
<g id="Group_2">
<path id="Vector_12" d="M34.4506 18.9143C33.9976 18.9143 33.6303 18.547 33.6303 18.094V17.03C33.6303 16.6405 33.4161 16.2857 33.0711 16.1044C33.0697 16.1037 33.0614 16.0992 33.06 16.0985C32.4205 15.7622 32.0205 15.1001 32.0205 14.3727V12.1586C32.0205 11.4444 32.4097 10.7881 33.0362 10.4455L37.3286 8.09836C37.5893 7.95586 37.751 7.68282 37.751 7.38586V5.50208C37.751 5.04903 38.1182 4.68176 38.5713 4.68176C39.0243 4.68176 39.3916 5.04903 39.3916 5.50208V7.38586C39.3916 8.28282 38.9027 9.10735 38.1157 9.53778L33.8232 11.8849C33.7231 11.9397 33.661 12.0444 33.661 12.1586V14.3727C33.661 14.4888 33.7249 14.5945 33.8277 14.6486C33.8291 14.6493 33.8374 14.6537 33.8388 14.6544C34.7204 15.118 35.2708 16.0291 35.2708 17.03V18.094C35.2709 18.5472 34.9037 18.9143 34.4506 18.9143Z" fill="#BEC8F7"/>
</g>
</g>
</g>
<defs>
<clipPath id="clip0_96_1707">
<rect width="60" height="60" fill="white"/>
</clipPath>
</defs>
</svg>
