<svg width="65" height="64" viewBox="0 0 65 64" fill="none" xmlns="http://www.w3.org/2000/svg">
<g id="002-decayed" clip-path="url(#clip0_96_2300)">
<g id="Layer_x0020_1">
<path id="Vector" fill-rule="evenodd" clip-rule="evenodd" d="M39.2088 63.7625C35.8077 63.7625 34.6116 58.4926 34.6116 57.3713V46.1213C34.6116 37.039 25.791 36.7774 25.791 46.1213L25.7536 57.6329C25.3425 60.3987 23.3616 65.7434 18.9887 63.0898C15.4754 60.9594 11.1024 54.3065 10.2054 47.7658C8.89729 38.4967 11.2146 40.4776 6.39313 31.0216C-3.06288 12.3712 10.7661 0.149394 30.2013 9.56802C33.453 7.99825 36.6299 6.98911 39.6573 6.54061C40.3675 6.42848 40.6665 7.13861 40.4422 7.6245L55.8409 20.3322C56.2521 19.9958 57.1117 20.22 57.0369 20.9676C56.8127 24.1445 55.8036 27.5083 54.0469 31.0216C49.2255 40.5149 51.5427 38.4593 50.2346 47.7658C49.3002 54.456 43.6939 63.7625 39.2088 63.7625Z" fill="#E4EDFF"/>
<path id="Vector_2" fill-rule="evenodd" clip-rule="evenodd" d="M10.9907 23.3222C10.5795 23.3222 10.2432 22.9858 10.2432 22.5747C10.2432 17.4169 14.4292 13.2308 19.587 13.2308C20.5588 13.2308 20.5588 14.7259 19.587 14.7259C15.2515 14.7259 11.7382 18.2392 11.7382 22.5747C11.7382 22.9858 11.4018 23.3222 10.9907 23.3222Z" fill="#CDD5F6"/>
<path id="Vector_3" fill-rule="evenodd" clip-rule="evenodd" d="M30.1264 23.5091C29.7153 23.5091 29.3789 23.1727 29.3789 22.7616V18.9493C29.3789 17.9775 30.8739 17.9775 30.8739 18.9493V22.7616C30.8739 23.1727 30.5375 23.5091 30.1264 23.5091Z" fill="#CDD5F6"/>
<path id="Vector_4" fill-rule="evenodd" clip-rule="evenodd" d="M30.1264 33.3763C29.7153 33.3763 29.3789 33.0399 29.3789 32.6287V28.8538C29.3789 27.8821 30.8739 27.8821 30.8739 28.8538V32.6287C30.8739 33.0399 30.5375 33.3763 30.1264 33.3763Z" fill="#CDD5F6"/>
<path id="Vector_5" fill-rule="evenodd" clip-rule="evenodd" d="M36.9664 26.5365H33.1914C32.1823 26.5365 32.1823 25.0415 33.1914 25.0415H36.9664C37.9381 25.0415 37.9755 26.5365 36.9664 26.5365Z" fill="#CDD5F6"/>
<path id="Vector_6" fill-rule="evenodd" clip-rule="evenodd" d="M27.0987 26.5365H23.2864C22.3147 26.5365 22.3147 25.0415 23.2864 25.0415H27.0987C28.0705 25.0415 28.0705 26.5365 27.0987 26.5365Z" fill="#CDD5F6"/>
<path id="Vector_7" fill-rule="evenodd" clip-rule="evenodd" d="M49.8604 23.5839C39.3579 23.5839 34.1253 10.8762 41.5257 3.47588C48.926 -3.96185 61.6337 1.34547 61.6337 11.8106C61.6337 18.314 56.3637 23.5839 49.8604 23.5839Z" fill="#FB626B"/>
<g id="Group">
<path id="Vector_8" fill-rule="evenodd" clip-rule="evenodd" d="M52.4392 11.2874C51.3927 11.2874 51.3927 12.8571 52.4392 12.8571C53.4483 12.8571 53.4483 11.2874 52.4392 11.2874Z" fill="#D70000"/>
<path id="Vector_9" fill-rule="evenodd" clip-rule="evenodd" d="M52.4398 14.3522C49.4498 14.3522 49.4498 9.79236 52.4398 9.79236C55.4298 9.79236 55.4298 14.3522 52.4398 14.3522Z" fill="#D70000"/>
<path id="Vector_10" fill-rule="evenodd" clip-rule="evenodd" d="M52.0656 8.59629C51.4302 8.59629 51.0938 7.88616 51.4676 7.3629C52.2898 6.31638 52.9626 4.97087 53.7848 5.60625C54.5697 6.24163 53.4485 7.25077 52.6262 8.29729C52.5141 8.48416 52.2898 8.59629 52.0656 8.59629Z" fill="#D70000"/>
<path id="Vector_11" fill-rule="evenodd" clip-rule="evenodd" d="M47.4307 8.82055C44.4033 8.82055 44.4033 4.26074 47.4307 4.26074C50.4208 4.26074 50.4208 8.82055 47.4307 8.82055Z" fill="#D70000"/>
<path id="Vector_12" fill-rule="evenodd" clip-rule="evenodd" d="M44.7027 14.2026C44.1047 14.2026 43.731 13.4925 44.1047 13.0066C44.927 11.9601 45.5997 10.6145 46.422 11.2499C47.2443 11.8853 46.123 12.8944 45.3007 13.941C45.1512 14.1278 44.927 14.2026 44.7027 14.2026Z" fill="#D70000"/>
<path id="Vector_13" fill-rule="evenodd" clip-rule="evenodd" d="M47.805 19.3231C44.815 19.3231 44.815 14.7633 47.805 14.7633C50.7951 14.7633 50.7951 19.3231 47.805 19.3231Z" fill="#D70000"/>
<path id="Vector_14" fill-rule="evenodd" clip-rule="evenodd" d="M53.7477 17.9401C53.1496 17.9401 52.7759 17.23 53.1496 16.7441C53.9719 15.6976 54.6447 14.3521 55.4669 14.9875C56.2892 15.6229 55.1305 16.5946 54.3457 17.6411C54.1962 17.8654 53.9719 17.9401 53.7477 17.9401Z" fill="#D70000"/>
</g>
</g>
</g>
<defs>
<clipPath id="clip0_96_2300">
<rect width="63.8" height="63.8" fill="white" transform="translate(0.599609)"/>
</clipPath>
</defs>
</svg>
