<svg width="64" height="64" viewBox="0 0 64 64" fill="none" xmlns="http://www.w3.org/2000/svg">
<g id="004-dental" clip-path="url(#clip0_96_1980)">
<g id="Group">
<path id="Vector" d="M63.8 8.76754V59.606C63.8 60.6843 62.9271 61.5573 61.8487 61.5573H1.95126C0.872889 61.5573 0 60.6844 0 59.606V8.76754C0 7.69054 0.872889 6.81628 1.95126 6.81628H61.8489C62.9271 6.81641 63.8 7.69054 63.8 8.76754Z" fill="#EAF6FF"/>
<g id="Group_2">
<path id="Vector_2" d="M10.3635 12.3774L8.21969 13.0192C7.78966 13.1476 7.33646 12.9037 7.20686 12.4723L5.51367 6.81628H9.54703L10.909 11.3644C11.0375 11.7946 10.7936 12.249 10.3635 12.3774Z" fill="#C8EFFE"/>
<path id="Vector_3" d="M52.7052 6.81641L51.0132 12.4724C50.8836 12.9038 50.4304 13.1477 50.0004 13.0193L47.8566 12.3775C47.4266 12.2491 47.1814 11.7947 47.3111 11.3646L48.6731 6.81653H52.7052V6.81641Z" fill="#C8EFFE"/>
</g>
<path id="Vector_4" d="M61.8485 6.81702H54.1611C55.2388 6.81702 56.1123 7.69053 56.1123 8.76815V59.6065C56.1123 60.6842 55.2388 61.5577 54.1611 61.5577H61.8485C62.926 61.5577 63.7997 60.6842 63.7997 59.6065V8.76803C63.7997 7.69053 62.9262 6.81702 61.8485 6.81702Z" fill="#C8EFFE"/>
<path id="Vector_5" d="M60.3338 11.7959V56.5778C60.3338 57.4136 59.6561 58.0914 58.8203 58.0914H4.97933C4.1437 58.0914 3.46582 57.4136 3.46582 56.5778V11.7959C3.46582 10.9602 4.14357 10.2823 4.97933 10.2823H58.8203C59.6561 10.2823 60.3338 10.9602 60.3338 11.7959Z" fill="#99E6FC"/>
<g id="Group_3">
<path id="Vector_6" d="M10.3633 12.3774L8.21955 13.0193C7.78952 13.1476 7.33632 12.9038 7.20672 12.4724L6.55078 10.2825H10.5855L10.909 11.3646C11.0373 11.7946 10.7935 12.2491 10.3633 12.3774Z" fill="#62DBFB"/>
<path id="Vector_7" d="M51.6679 10.2825L51.0132 12.4725C50.8836 12.9039 50.4304 13.1477 50.0004 13.0194L47.8566 12.3775C47.4266 12.2492 47.1814 11.7947 47.3111 11.3647L47.6346 10.2826H51.6679V10.2825Z" fill="#62DBFB"/>
</g>
<path id="Vector_8" d="M60.3344 11.7959V56.5778C60.3344 57.4136 59.6567 58.0914 58.8209 58.0914H56.1123V10.2823H58.8209C59.6567 10.2823 60.3344 10.9602 60.3344 11.7959Z" fill="#62DBFB"/>
<g id="Group_4">
<path id="Vector_9" d="M46.1759 27.3774H17.6239C16.1495 27.3774 14.8744 26.35 14.5607 24.9094L13.6234 20.6041C13.3984 19.5704 14.1166 18.5689 15.1678 18.4505L25.7159 17.2627C29.826 16.7999 33.975 16.7999 38.0851 17.2627L48.6319 18.4504C49.6831 18.5688 50.4014 19.5703 50.1763 20.604L49.239 24.9093C48.9254 26.35 47.6502 27.3774 46.1759 27.3774Z" fill="#62DBFB"/>
<path id="Vector_10" d="M48.6315 18.4505L38.0847 17.2629C34.9247 16.907 31.7418 16.8259 28.5713 17.0171C29.5248 17.0747 30.4773 17.1558 31.4276 17.2629L41.9744 18.4505C43.0257 18.5689 43.7439 19.5704 43.5188 20.6041L42.5815 24.9094C42.2679 26.35 40.9927 27.3774 39.5183 27.3774H46.1755C47.6499 27.3774 48.925 26.35 49.2386 24.9094L50.1759 20.6041C50.401 19.5704 49.6829 18.5689 48.6315 18.4505Z" fill="#01D0FB"/>
<g id="Group_5">
<path id="Vector_11" d="M29.9452 30.7445H25.8364C24.7564 30.7445 23.8809 29.869 23.8809 28.789C23.8809 28.056 23.9624 27.3251 24.124 26.6101L24.9524 22.9439C25.2627 21.5705 26.4828 20.5952 27.8908 20.5952C29.2987 20.5952 30.5189 21.5704 30.8292 22.9439L31.6576 26.6101C31.8192 27.3251 31.9007 28.056 31.9007 28.789C31.9007 29.869 31.0252 30.7445 29.9452 30.7445Z" fill="#EAF6FF"/>
<path id="Vector_12" d="M31.658 26.6101L30.8296 22.9439C30.5193 21.5705 29.2991 20.5952 27.8912 20.5952C27.3197 20.5952 26.7806 20.7581 26.3193 21.0407C26.9946 21.4545 27.5016 22.1278 27.6859 22.9437L28.5143 26.61C28.6759 27.325 28.7574 28.0558 28.7574 28.7889C28.7574 29.8689 27.8819 30.7444 26.8019 30.7444H29.9457C31.0257 30.7444 31.9012 29.8689 31.9012 28.7889C31.9011 28.056 31.8196 27.3251 31.658 26.6101Z" fill="#C8EFFE"/>
<path id="Vector_13" d="M37.9648 30.7445H33.8559C32.7759 30.7445 31.9004 29.869 31.9004 28.789C31.9004 28.056 31.9819 27.3251 32.1435 26.6101L32.9719 22.9439C33.2822 21.5705 34.5024 20.5952 35.9103 20.5952C37.3183 20.5952 38.5385 21.5704 38.8487 22.9439L39.6771 26.6101C39.8388 27.3251 39.9202 28.056 39.9202 28.789C39.9201 29.869 39.0447 30.7445 37.9648 30.7445Z" fill="#EAF6FF"/>
<path id="Vector_14" d="M39.6775 26.6101L38.8491 22.9439C38.5388 21.5705 37.3186 20.5952 35.9107 20.5952C35.3392 20.5952 34.8002 20.7581 34.3389 21.0407C35.0141 21.4545 35.5212 22.1278 35.7055 22.9437L36.5339 26.61C36.6955 27.325 36.777 28.0558 36.777 28.7889C36.777 29.8689 35.9015 30.7444 34.8215 30.7444H37.9651C39.0451 30.7444 39.9206 29.8689 39.9206 28.7889C39.9206 28.056 39.8391 27.3251 39.6775 26.6101Z" fill="#C8EFFE"/>
<path id="Vector_15" d="M45.4262 30.7446H41.6948C40.714 30.7446 39.9189 29.9494 39.9189 28.9688C39.9189 28.303 39.993 27.6393 40.1398 26.99L40.892 23.6605C41.1738 22.4133 42.2819 21.5277 43.5605 21.5277C44.8391 21.5277 45.9473 22.4133 46.229 23.6605L46.9813 26.99C47.128 27.6393 47.2021 28.303 47.2021 28.9688C47.2021 29.9494 46.407 30.7446 45.4262 30.7446Z" fill="#EAF6FF"/>
<path id="Vector_16" d="M46.9819 26.9898L46.2296 23.6604C45.9477 22.4132 44.8397 21.5276 43.5611 21.5276C42.9814 21.5276 42.4377 21.7111 41.9893 22.0264C42.5299 22.4065 42.9319 22.9788 43.0859 23.6605L43.8382 26.99C43.985 27.6393 44.059 28.303 44.059 28.9688C44.059 29.9496 43.2639 30.7446 42.2832 30.7446H45.4269C46.4077 30.7446 47.2027 29.9494 47.2027 28.9688C47.2027 28.303 47.1285 27.6393 46.9819 26.9898Z" fill="#C8EFFE"/>
<path id="Vector_17" d="M18.3736 30.7446H22.105C23.0858 30.7446 23.8808 29.9494 23.8808 28.9688C23.8808 28.303 23.8068 27.6393 23.66 26.99L22.9077 23.6605C22.626 22.4133 21.5179 21.5277 20.2392 21.5277C18.9606 21.5277 17.8525 22.4133 17.5707 23.6605L16.8185 26.99C16.6718 27.6393 16.5977 28.303 16.5977 28.9688C16.5977 29.9494 17.3928 30.7446 18.3736 30.7446Z" fill="#EAF6FF"/>
<path id="Vector_18" d="M23.6596 26.9898L22.9073 23.6604C22.6256 22.4132 21.5174 21.5276 20.2388 21.5276C19.6591 21.5276 19.1155 21.7111 18.667 22.0264C19.2077 22.4065 19.6097 22.9788 19.7637 23.6605L20.5159 26.99C20.6626 27.6393 20.7368 28.303 20.7368 28.9688C20.7368 29.9496 19.9416 30.7446 18.9609 30.7446H22.1046C23.0854 30.7446 23.8804 29.9494 23.8804 28.9688C23.8804 28.303 23.8064 27.6393 23.6596 26.9898Z" fill="#C8EFFE"/>
</g>
<path id="Vector_19" d="M46.1759 38.4441H17.6239C16.1495 38.4441 14.8744 39.4715 14.5607 40.9121L13.6234 45.2174C13.3984 46.2511 14.1166 47.2526 15.1678 47.371L25.7159 48.5588C29.826 49.0216 33.975 49.0216 38.0851 48.5588L48.6319 47.3711C49.6831 47.2527 50.4014 46.2512 50.1763 45.2175L49.239 40.9122C48.9254 39.4715 47.6502 38.4441 46.1759 38.4441Z" fill="#62DBFB"/>
<path id="Vector_20" d="M50.1759 45.2174L49.2386 40.9121C48.925 39.4715 47.6499 38.4441 46.1755 38.4441H39.5183C40.9927 38.4441 42.2679 39.4715 42.5815 40.9121L43.5188 45.2174C43.7439 46.2511 43.0256 47.2526 41.9744 47.371L31.4276 48.5586C30.4773 48.6657 29.5248 48.7468 28.5713 48.8044C31.7418 48.9956 34.9247 48.9145 38.0847 48.5586L48.6315 47.371C49.6829 47.2526 50.401 46.2511 50.1759 45.2174Z" fill="#01D0FB"/>
<g id="Group_6">
<path id="Vector_21" d="M29.9452 35.077H25.8364C24.7564 35.077 23.8809 35.9525 23.8809 37.0325C23.8809 37.7656 23.9624 38.4964 24.124 39.2114L24.9524 42.8777C25.2627 44.251 26.4828 45.2263 27.8908 45.2263C29.2987 45.2263 30.5189 44.2511 30.8292 42.8777L31.6576 39.2114C31.8192 38.4964 31.9007 37.7656 31.9007 37.0325C31.9007 35.9525 31.0252 35.077 29.9452 35.077Z" fill="#EAF6FF"/>
<path id="Vector_22" d="M29.9447 35.077H26.801C27.881 35.077 28.7565 35.9525 28.7565 37.0325C28.7565 37.7656 28.675 38.4964 28.5134 39.2114L27.6849 42.8777C27.5005 43.6936 26.9936 44.3669 26.3184 44.7807C26.7797 45.0635 27.3187 45.2262 27.8902 45.2262C29.2981 45.2262 30.5183 44.251 30.8286 42.8776L31.657 39.2113C31.8186 38.4963 31.9001 37.7655 31.9001 37.0324C31.9002 35.9525 31.0247 35.077 29.9447 35.077Z" fill="#C8EFFE"/>
<path id="Vector_23" d="M37.9648 35.077H33.8559C32.7759 35.077 31.9004 35.9525 31.9004 37.0325C31.9004 37.7656 31.9819 38.4964 32.1435 39.2114L32.9719 42.8777C33.2822 44.251 34.5024 45.2263 35.9103 45.2263C37.3183 45.2263 38.5385 44.2511 38.8487 42.8777L39.6771 39.2114C39.8388 38.4964 39.9202 37.7656 39.9202 37.0325C39.9201 35.9525 39.0447 35.077 37.9648 35.077Z" fill="#EAF6FF"/>
<path id="Vector_24" d="M37.9651 35.077H34.8215C35.9015 35.077 36.777 35.9525 36.777 37.0325C36.777 37.7656 36.6955 38.4964 36.5339 39.2114L35.7055 42.8777C35.5212 43.6936 35.0141 44.3669 34.3389 44.7807C34.8002 45.0635 35.3392 45.2262 35.9107 45.2262C37.3187 45.2262 38.5388 44.251 38.8491 42.8776L39.6775 39.2113C39.8391 38.4963 39.9206 37.7655 39.9206 37.0324C39.9205 35.9525 39.0451 35.077 37.9651 35.077Z" fill="#C8EFFE"/>
<path id="Vector_25" d="M45.4262 35.077H41.6948C40.714 35.077 39.9189 35.8722 39.9189 36.8528C39.9189 37.5186 39.993 38.1823 40.1398 38.8316L40.892 42.1611C41.1738 43.4083 42.2819 44.2939 43.5605 44.2939C44.8391 44.2939 45.9473 43.4083 46.229 42.1611L46.9813 38.8316C47.128 38.1823 47.2021 37.5186 47.2021 36.8528C47.2021 35.8722 46.407 35.077 45.4262 35.077Z" fill="#EAF6FF"/>
<path id="Vector_26" d="M45.4269 35.077H42.2832C43.264 35.077 44.059 35.8722 44.059 36.8528C44.059 37.5186 43.985 38.1823 43.8382 38.8316L43.0859 42.1611C42.9319 42.8428 42.5299 43.415 41.9893 43.7952C42.4377 44.1105 42.9814 44.294 43.5611 44.294C44.8397 44.294 45.9479 43.4083 46.2296 42.1612L46.9819 38.8318C47.1285 38.1824 47.2027 37.5187 47.2027 36.853C47.2028 35.8722 46.4077 35.077 45.4269 35.077Z" fill="#C8EFFE"/>
<path id="Vector_27" d="M18.3736 35.077H22.105C23.0858 35.077 23.8808 35.8722 23.8808 36.8528C23.8808 37.5186 23.8068 38.1823 23.66 38.8316L22.9077 42.1611C22.626 43.4083 21.5179 44.2939 20.2392 44.2939C18.9606 44.2939 17.8525 43.4083 17.5707 42.1611L16.8185 38.8316C16.6718 38.1823 16.5977 37.5186 16.5977 36.8528C16.5977 35.8722 17.3928 35.077 18.3736 35.077Z" fill="#EAF6FF"/>
<path id="Vector_28" d="M22.1046 35.077H18.9609C19.9417 35.077 20.7368 35.8722 20.7368 36.8528C20.7368 37.5186 20.6627 38.1823 20.5159 38.8316L19.7637 42.1611C19.6097 42.8428 19.2077 43.415 18.667 43.7952C19.1155 44.1105 19.6591 44.294 20.2388 44.294C21.5174 44.294 22.6256 43.4083 22.9073 42.1612L23.6596 38.8318C23.8064 38.1824 23.8804 37.5187 23.8804 36.853C23.8804 35.8722 23.0854 35.077 22.1046 35.077Z" fill="#C8EFFE"/>
</g>
</g>
<g id="Group_7">
<path id="Vector_29" d="M13.1535 12.3773L11.0103 13.0189C10.5799 13.1477 10.1265 12.9033 9.99762 12.4729L7.44063 3.93113C7.31179 3.50073 7.55627 3.04727 7.98667 2.91843L10.1298 2.27681C10.5602 2.14797 11.0137 2.39245 11.1425 2.82285L13.6995 11.3646C13.8284 11.7951 13.5839 12.2484 13.1535 12.3773Z" fill="#6C7FD8"/>
<path id="Vector_30" d="M50.6468 12.3773L52.79 13.0189C53.2204 13.1477 53.6738 12.9033 53.8027 12.4729L56.3597 3.93113C56.4885 3.50073 56.244 3.04727 55.8136 2.91843L53.6705 2.27681C53.2401 2.14797 52.7866 2.39245 52.6578 2.82285L50.1008 11.3646C49.9719 11.7951 50.2164 12.2484 50.6468 12.3773Z" fill="#6C7FD8"/>
</g>
<path id="Vector_31" d="M17.5578 54.9959C18.088 54.9959 18.5179 54.5661 18.5179 54.0358C18.5179 53.5055 18.088 53.0757 17.5578 53.0757C17.0275 53.0757 16.5977 53.5055 16.5977 54.0358C16.5977 54.5661 17.0275 54.9959 17.5578 54.9959Z" fill="#6C7FD8"/>
<g id="Group_8">
<path id="Vector_32" d="M13.5825 54.9986H7.99301C7.46117 54.9986 7.03027 54.5676 7.03027 54.0359C7.03027 53.5041 7.4613 53.0731 7.99301 53.0731H13.5825C14.1143 53.0731 14.5452 53.5041 14.5452 54.0359C14.5452 54.5676 14.1143 54.9986 13.5825 54.9986Z" fill="#6C7FD8"/>
</g>
</g>
</g>
<defs>
<clipPath id="clip0_96_1980">
<rect width="63.8" height="63.8" fill="white"/>
</clipPath>
</defs>
</svg>
