<svg width="64" height="64" viewBox="0 0 64 64" fill="none" xmlns="http://www.w3.org/2000/svg">
<g id="001-dental-checkup" clip-path="url(#clip0_96_2270)">
<g id="Group">
<path id="Vector" d="M58.8475 31.9L46.1571 51.8888H18.12L5.42969 31.9L14.3001 14.2159H48.0941L58.8475 31.9Z" fill="#8795DE"/>
<path id="Vector_2" d="M48.094 14.2159H41.8236L51.6046 30.3006C52.2001 31.2801 52.1883 32.5126 51.5738 33.4803L39.8867 51.889H46.1571L58.8474 31.9L48.094 14.2159Z" fill="#6C7FD8"/>
<path id="Vector_3" d="M32.1387 50.2052L17.0342 48.7635L18.2046 44.2821C19.0582 41.01 22.0147 38.7274 25.3967 38.7274H26.4701L32.1387 50.2052Z" fill="#FD4755"/>
<path id="Vector_4" d="M44.8192 39.3689C44.6407 41.9594 43.403 44.7103 41.1876 46.9257C40.471 47.6422 32.9428 49.6969 32.1383 50.2052L29.2102 49.9257C29.2102 49.9257 27.6919 48.5759 27.5923 48.4764C25.1958 46.0799 24.8867 42.2478 26.4697 38.7274H41.7979C42.8649 38.7274 43.8906 38.9551 44.8192 39.3689Z" fill="#FB2B3A"/>
<path id="Vector_5" d="M46.9029 23.4475H17.3742C16.0754 23.4475 15.0225 22.3945 15.0225 21.0957V14.9737L32.4529 12.9169L49.2547 14.9737V21.0957C49.2547 22.3947 48.2017 23.4475 46.9029 23.4475Z" fill="#EAF9FA"/>
<path id="Vector_6" d="M42.9846 14.9738V21.0958C42.9846 22.3946 41.9316 23.4476 40.6328 23.4476H46.9032C48.202 23.4476 49.2549 22.3946 49.2549 21.0958V14.9738L44.3611 14.3746L42.9846 14.9738Z" fill="#D4F2F6"/>
<g id="Group_2">
<g id="Group_3">
<g id="Group_4">
<path id="Vector_7" d="M24.4143 19.3425C23.8785 19.3425 23.4443 18.9083 23.4443 18.3726V14.9739C23.4443 14.4382 23.8786 14.0039 24.4143 14.0039C24.9501 14.0039 25.3843 14.4382 25.3843 14.9739V18.3726C25.3843 18.9082 24.95 19.3425 24.4143 19.3425Z" fill="#D4F2F6"/>
</g>
<g id="Group_5">
<path id="Vector_8" d="M39.8625 19.3425C39.3267 19.3425 38.8926 18.9083 38.8926 18.3726V14.9739C38.8926 14.4382 39.3268 14.0039 39.8625 14.0039C40.3982 14.0039 40.8325 14.4382 40.8325 14.9739V18.3726C40.8326 18.9082 40.3984 19.3425 39.8625 19.3425Z" fill="#D4F2F6"/>
</g>
</g>
<g id="Group_6">
<path id="Vector_9" d="M32.1389 19.3425C31.6031 19.3425 31.1689 18.9083 31.1689 18.3726V14.9739C31.1689 14.4382 31.6032 14.0039 32.1389 14.0039C32.6747 14.0039 33.1089 14.4382 33.1089 14.9739V18.3726C33.1089 18.9082 32.6746 19.3425 32.1389 19.3425Z" fill="#D4F2F6"/>
</g>
</g>
<path id="Vector_10" d="M63.3735 30.1037L51.4687 6.46589C49.9595 3.46929 46.8917 1.57983 43.5368 1.57983H38.4296C38.387 1.57983 38.3455 1.58108 38.3029 1.58245H38.2899C37.1466 1.61472 36.0512 2.05198 35.1989 2.81883L32.8709 4.91525C32.6588 5.10541 32.3924 5.19849 32.126 5.19587C31.8687 5.19326 31.6112 5.10017 31.4069 4.91525L29.0789 2.81883C28.1917 2.02083 27.0419 1.57983 25.8482 1.57983H20.7409C20.6789 1.57983 20.6181 1.57983 20.5572 1.58245C17.2749 1.64974 14.2911 3.52374 12.809 6.46602L0.904357 30.1037C0.335266 31.234 0.335266 32.5661 0.904357 33.6965L11.5767 54.8874C13.8412 59.3841 18.4467 62.2204 23.4816 62.2204H40.7963C45.8311 62.2204 50.4366 59.3841 52.7012 54.8874L63.3735 33.6965C63.9426 32.5661 63.9426 31.234 63.3735 30.1037ZM57.8537 33.0174L46.1571 46.1678C44.6543 47.8595 42.4983 48.8269 40.2364 48.8269H24.0416C21.7795 48.8269 19.6237 47.8595 18.1208 46.1678L6.42418 33.0174C5.8577 32.3798 5.8577 31.4202 6.42418 30.7825L18.1208 17.6323C19.6236 15.9406 21.7795 14.9732 24.0416 14.9732H40.2363C42.4983 14.9732 44.6542 15.9406 46.157 17.6323L57.8537 30.7825C58.4202 31.4202 58.4202 32.3799 57.8537 33.0174Z" fill="#FFC4C8"/>
<g id="Group_7">
<path id="Vector_11" d="M24.0409 48.8269H18.6116C16.3483 48.8269 14.1937 47.8595 12.6895 46.1679L0.848152 32.8546C0.364418 32.31 0.364418 31.4901 0.848152 30.9457L12.6897 17.6324C14.1938 15.9407 16.3484 14.9734 18.6117 14.9734H24.0411C21.779 14.9734 19.6232 15.9407 18.1203 17.6324L6.42355 30.7827C5.85707 31.4203 5.85707 32.3799 6.42355 33.0176L18.1201 46.1679C19.623 47.8594 21.7789 48.8269 24.0409 48.8269Z" fill="#FDB4BA"/>
<path id="Vector_12" d="M32.1382 5.21531H28.2945C27.2741 5.21531 26.2885 4.83762 25.5294 4.15352L23.6489 2.81883C22.7966 2.05185 21.6999 1.6161 20.5566 1.58245C20.6174 1.57983 20.6783 1.57983 20.7403 1.57983H25.8476C27.0413 1.57983 28.1911 2.02083 29.0783 2.81883L31.4063 4.91525C31.6106 5.10017 31.8679 5.19326 32.1254 5.19587L32.1382 5.21531Z" fill="#FDB4BA"/>
<path id="Vector_13" d="M63.3727 33.6964L52.7004 54.8872C50.4358 59.384 45.8303 62.2202 40.7954 62.2202H35.3662C40.4011 62.2202 45.0065 59.384 47.2698 54.8872L58.4931 32.6023C58.7155 32.16 58.7155 31.6401 58.4931 31.1979L46.0385 6.46589C44.559 3.52885 41.5792 1.65485 38.302 1.58233C38.3447 1.58108 38.3861 1.57971 38.4287 1.57971H43.536C46.8908 1.57971 49.9586 3.46929 51.4679 6.46577L63.3728 30.1035C63.9418 31.234 63.9418 32.5661 63.3727 33.6964Z" fill="#FDB4BA"/>
</g>
<g id="Group_8">
<path id="Vector_14" d="M25.9482 56.7064C25.5102 56.7064 25.0696 56.635 24.6452 56.4879L18.1839 54.2493C17.6778 54.0739 17.4096 53.5214 17.5849 53.0152C17.7603 52.509 18.313 52.241 18.8191 52.4162L25.2804 54.6548C26.0252 54.913 26.8663 54.7199 27.4236 54.1626L33.3819 48.2043C33.761 47.8255 34.3751 47.8255 34.7537 48.2043C35.1326 48.5831 35.1326 49.1973 34.7537 49.576L28.7954 55.5342C28.0339 56.2958 26.9986 56.7064 25.9482 56.7064Z" fill="#D4F2F6"/>
</g>
<g id="Group_9">
<path id="Vector_15" d="M18.8718 52.2631L18.1308 54.4023C17.9846 54.824 17.5242 55.0464 17.1026 54.9002L0.64747 49.1638C0.259811 49.0286 0 48.6629 0 48.2523V45.7483C0 45.2982 0.444108 44.9828 0.869026 45.131L18.3727 51.235C18.7943 51.3811 19.018 51.8416 18.8718 52.2631Z" fill="#838383"/>
</g>
<path id="Vector_16" d="M47.236 46.9243C51.4181 42.7422 52.1127 36.6564 48.7875 33.3311C45.4622 30.0059 39.3764 30.7005 35.1943 34.8826C31.0123 39.0646 30.3177 45.1505 33.6429 48.4757C36.9681 51.8009 43.054 51.1063 47.236 46.9243Z" fill="#A6E7F0"/>
<path id="Vector_17" d="M48.7969 33.3299C46.994 31.5271 44.3797 30.9081 41.6973 31.3834C43.1157 31.6587 44.4084 32.3017 45.4368 33.3299C48.7625 36.6556 48.0678 42.7424 43.8852 46.9251C41.9699 48.8403 39.6554 50.0219 37.3896 50.4232C40.5585 51.0383 44.3559 49.8144 47.2454 46.9251C51.428 42.7424 52.1227 36.6556 48.7969 33.3299Z" fill="#6BD9E7"/>
<path id="Vector_18" d="M39.0377 47.2168C38.1747 47.2168 36.9522 47.0229 36.0285 46.099C34.0532 44.1237 34.7637 40.0756 37.5801 37.2592C39.2516 35.5878 41.4313 34.5898 43.4107 34.5898C44.2736 34.5898 45.4962 34.7837 46.4199 35.7076C48.3951 37.6829 47.6846 41.731 44.8681 44.5474C43.1966 46.2189 41.017 47.2168 39.0377 47.2168Z" fill="#EAF9FA"/>
<path id="Vector_19" d="M46.4197 35.7076C45.496 34.7837 44.2735 34.5898 43.4105 34.5898C42.2747 34.5898 41.0734 34.9198 39.9396 35.5157C40.0108 35.5763 40.0811 35.6393 40.1495 35.7076C42.1247 37.6829 41.4142 41.731 38.5978 44.5474C37.8854 45.2598 37.0804 45.8483 36.2383 46.2909C37.1314 47.0493 38.2385 47.2168 39.0376 47.2168C41.0171 47.2168 43.1967 46.2188 44.8681 44.5474C47.6844 41.731 48.3949 37.6829 46.4197 35.7076Z" fill="#D4F2F6"/>
</g>
</g>
<defs>
<clipPath id="clip0_96_2270">
<rect width="63.8" height="63.8" fill="white"/>
</clipPath>
</defs>
</svg>
