<svg width="62" height="54" viewBox="0 0 62 54" fill="none" xmlns="http://www.w3.org/2000/svg">
<g id="Flat">
<path id="Vector" d="M59.5723 17.3478C55.8501 13.4147 43.5938 15.8164 34.8927 19.5896C33.6598 20.1236 32.3305 20.399 30.9869 20.399C29.6433 20.399 28.314 20.1236 27.0811 19.5896C18.379 15.8164 6.12371 13.4147 2.40154 17.3478C-0.570834 20.4887 -0.901716 26.4334 2.07116 31.4913C21.7561 40.9226 41.0333 40.9226 59.9027 31.4913C62.8755 26.4334 62.5446 20.4887 59.5723 17.3478Z" fill="#FF6687"/>
<path id="Vector_2" d="M59.2635 28.3323C57.8165 25.8582 53.3947 27.2243 52.1146 30.7051C52.0987 30.7535 52.067 30.7952 52.0245 30.8233C51.9821 30.8515 51.9314 30.8647 51.8806 30.8606C51.8298 30.8565 51.7819 30.8354 51.7445 30.8008C51.7071 30.7662 51.6824 30.72 51.6745 30.6697C51.5636 29.8807 51.3387 29.1121 51.0066 28.3879C50.1314 26.7234 46.777 26.7082 44.5155 28.3879C43.7437 29.0459 43.1678 29.9035 42.8509 30.867C42.7194 31.1959 42.603 31.5348 42.4867 31.8687C42.472 31.9149 42.4416 31.9545 42.4008 31.9806C42.36 32.0067 42.3113 32.0177 42.2633 32.0117C42.2152 32.0057 42.1707 31.9831 42.1376 31.9477C42.1045 31.9123 42.0848 31.8665 42.0819 31.8182C42.0668 31.5804 42.0465 31.3476 42.0212 31.1351V31.0795C41.9959 30.8721 41.9757 30.6849 41.9504 30.5432C41.0093 25.1044 32.8941 26.5362 31.6394 31.9244C31.5332 32.3696 31.4421 32.83 31.3611 33.2904C31.3497 33.3779 31.3071 33.4583 31.2411 33.5169C31.1751 33.5754 31.0902 33.6082 31.0019 33.6092H30.9868C30.896 33.6115 30.8077 33.5802 30.7386 33.5214C30.6695 33.4626 30.6245 33.3803 30.6124 33.2904C30.5314 32.83 30.4403 32.3696 30.3341 31.9244C29.8135 29.6882 26.6691 33.594 26.9074 36.3539C27.0764 38.3037 30.3984 41.4663 30.6579 40.8997C30.8858 40.1835 30.9968 39.4352 30.9868 38.6837C30.9918 38.7798 30.9969 38.876 31.0019 38.967C31.0018 39.6239 31.1077 40.2766 31.3156 40.8997C31.5736 41.4663 32.4641 41.6839 33.0054 41.7294C35.461 41.9212 37.9309 41.8022 40.3567 41.3753C40.7755 41.3059 41.1641 41.1134 41.4732 40.8224C41.7822 40.5314 41.9976 40.155 42.092 39.7411V39.7664C42.1831 40.1307 42.6587 40.3735 43.3518 40.5152C45.8056 41.0009 51.0066 40.1459 51.6391 38.6888C51.6805 38.5829 51.716 38.4748 51.7453 38.365C52.0843 39.7765 58.7525 38.8355 59.4153 37.2468C59.8959 36.0883 60.3361 30.1587 59.2635 28.3323Z" fill="#EBECFF"/>
<path id="Vector_3" d="M31.002 33.6092V38.967C30.997 38.876 30.9919 38.7798 30.9869 38.6837C30.9969 39.4352 30.8859 40.1835 30.658 40.8997C30.4 41.4663 29.5095 41.6839 28.9682 41.7294C26.5126 41.9212 24.0427 41.8022 21.6169 41.3753C21.1981 41.3059 20.8095 41.1134 20.5005 40.8224C20.1914 40.5314 19.976 40.155 19.8816 39.7411V39.7664C19.4515 41.4309 11.1441 40.5557 10.3346 38.6888C10.2931 38.5829 10.2577 38.4748 10.2283 38.365C9.88933 39.7765 3.2211 38.8355 2.55832 37.2468C2.07769 36.0883 1.63752 30.1587 2.71011 28.3323C4.15708 25.8582 8.57896 27.2243 9.85898 30.7051C9.87489 30.7535 9.90663 30.7952 9.94907 30.8233C9.99151 30.8515 10.0422 30.8647 10.093 30.8606C10.1438 30.8565 10.1917 30.8354 10.2291 30.8008C10.2665 30.7662 10.2912 30.72 10.2991 30.6697C10.41 29.8807 10.635 29.1121 10.967 28.3879C11.8422 26.7234 15.1966 26.7082 17.4581 28.3879C18.5054 29.1671 19.0367 30.5483 19.4869 31.8687C19.5016 31.9149 19.532 31.9545 19.5728 31.9806C19.6136 32.0067 19.6623 32.0177 19.7103 32.0117C19.7584 32.0057 19.8029 31.9831 19.836 31.9477C19.8691 31.9123 19.8888 31.8665 19.8917 31.8182C19.9271 31.3223 19.9726 30.8417 20.0232 30.5432C20.9643 25.1044 29.0795 26.5362 30.3342 31.9244C30.4404 32.3696 30.5315 32.83 30.6125 33.2904C30.6246 33.3803 30.6696 33.4626 30.7387 33.5214C30.8078 33.5802 30.8961 33.6115 30.9869 33.6092H31.002Z" fill="#FFDBBD"/>
<path id="Vector_4" d="M30.9864 53.9564C30.7852 53.9564 30.5921 53.8765 30.4498 53.7341C30.3075 53.5918 30.2275 53.3988 30.2275 53.1975V51.1738C30.2275 50.9725 30.3075 50.7795 30.4498 50.6371C30.5921 50.4948 30.7852 50.4149 30.9864 50.4149C31.1877 50.4149 31.3807 50.4948 31.5231 50.6371C31.6654 50.7795 31.7453 50.9725 31.7453 51.1738V53.1975C31.7453 53.3988 31.6654 53.5918 31.5231 53.7341C31.3807 53.8765 31.1877 53.9564 30.9864 53.9564ZM30.9864 49.9089C30.7852 49.9089 30.5921 49.829 30.4498 49.6866C30.3075 49.5443 30.2275 49.3513 30.2275 49.15V47.1263C30.2275 46.925 30.3075 46.732 30.4498 46.5897C30.5921 46.4473 30.7852 46.3674 30.9864 46.3674C31.1877 46.3674 31.3807 46.4473 31.5231 46.5897C31.6654 46.732 31.7453 46.925 31.7453 47.1263V49.15C31.7453 49.3513 31.6654 49.5443 31.5231 49.6866C31.3807 49.829 31.1877 49.9089 30.9864 49.9089ZM30.9864 45.8614C30.7852 45.8614 30.5921 45.7815 30.4498 45.6392C30.3075 45.4968 30.2275 45.3038 30.2275 45.1025V43.0788C30.2275 42.8775 30.3075 42.6845 30.4498 42.5422C30.5921 42.3998 30.7852 42.3199 30.9864 42.3199C31.1877 42.3199 31.3807 42.3998 31.5231 42.5422C31.6654 42.6845 31.7453 42.8775 31.7453 43.0788V45.1025C31.7453 45.3038 31.6654 45.4968 31.5231 45.6392C31.3807 45.7815 31.1877 45.8614 30.9864 45.8614ZM30.9864 41.814C30.7852 41.814 30.5921 41.734 30.4498 41.5917C30.3075 41.4494 30.2275 41.2563 30.2275 41.055V39.0313C30.2275 38.83 30.3075 38.637 30.4498 38.4947C30.5921 38.3524 30.7852 38.2724 30.9864 38.2724C31.1877 38.2724 31.3807 38.3524 31.5231 38.4947C31.6654 38.637 31.7453 38.83 31.7453 39.0313V41.055C31.7453 41.2563 31.6654 41.4494 31.5231 41.5917C31.3807 41.734 31.1877 41.814 30.9864 41.814ZM30.9864 37.7665C30.7852 37.7665 30.5921 37.6865 30.4498 37.5442C30.3075 37.4019 30.2275 37.2088 30.2275 37.0076V34.9838C30.2275 34.7825 30.3075 34.5895 30.4498 34.4472C30.5921 34.3049 30.7852 34.2249 30.9864 34.2249C31.1877 34.2249 31.3807 34.3049 31.5231 34.4472C31.6654 34.5895 31.7453 34.7825 31.7453 34.9838V37.0076C31.7453 37.2088 31.6654 37.4019 31.5231 37.5442C31.3807 37.6865 31.1877 37.7665 30.9864 37.7665ZM30.9864 33.719C30.7852 33.719 30.5921 33.639 30.4498 33.4967C30.3075 33.3544 30.2275 33.1614 30.2275 32.9601V30.9363C30.2275 30.7351 30.3075 30.542 30.4498 30.3997C30.5921 30.2574 30.7852 30.1774 30.9864 30.1774C31.1877 30.1774 31.3807 30.2574 31.5231 30.3997C31.6654 30.542 31.7453 30.7351 31.7453 30.9363V32.9601C31.7453 33.1614 31.6654 33.3544 31.5231 33.4967C31.3807 33.639 31.1877 33.719 30.9864 33.719ZM30.9864 29.6715C30.7852 29.6715 30.5921 29.5915 30.4498 29.4492C30.3075 29.3069 30.2275 29.1139 30.2275 28.9126V26.8888C30.2275 26.6876 30.3075 26.4945 30.4498 26.3522C30.5921 26.2099 30.7852 26.1299 30.9864 26.1299C31.1877 26.1299 31.3807 26.2099 31.5231 26.3522C31.6654 26.4945 31.7453 26.6876 31.7453 26.8888V28.9126C31.7453 29.1139 31.6654 29.3069 31.5231 29.4492C31.3807 29.5915 31.1877 29.6715 30.9864 29.6715ZM30.9864 25.624C30.7852 25.624 30.5921 25.5441 30.4498 25.4017C30.3075 25.2594 30.2275 25.0664 30.2275 24.8651V22.8414C30.2275 22.6401 30.3075 22.4471 30.4498 22.3047C30.5921 22.1624 30.7852 22.0825 30.9864 22.0825C31.1877 22.0825 31.3807 22.1624 31.5231 22.3047C31.6654 22.4471 31.7453 22.6401 31.7453 22.8414V24.8651C31.7453 25.0664 31.6654 25.2594 31.5231 25.4017C31.3807 25.5441 31.1877 25.624 30.9864 25.624ZM30.9864 21.5765C30.7852 21.5765 30.5921 21.4966 30.4498 21.3542C30.3075 21.2119 30.2275 21.0189 30.2275 20.8176V18.7939C30.2275 18.5926 30.3075 18.3996 30.4498 18.2573C30.5921 18.1149 30.7852 18.035 30.9864 18.035C31.1877 18.035 31.3807 18.1149 31.5231 18.2573C31.6654 18.3996 31.7453 18.5926 31.7453 18.7939V20.8176C31.7453 21.0189 31.6654 21.2119 31.5231 21.3542C31.3807 21.4966 31.1877 21.5765 30.9864 21.5765ZM30.9864 17.529C30.7852 17.529 30.5921 17.4491 30.4498 17.3068C30.3075 17.1644 30.2275 16.9714 30.2275 16.7701V14.7464C30.2275 14.5451 30.3075 14.3521 30.4498 14.2098C30.5921 14.0674 30.7852 13.9875 30.9864 13.9875C31.1877 13.9875 31.3807 14.0674 31.5231 14.2098C31.6654 14.3521 31.7453 14.5451 31.7453 14.7464V16.7701C31.7453 16.9714 31.6654 17.1644 31.5231 17.3068C31.3807 17.4491 31.1877 17.529 30.9864 17.529ZM30.9864 13.4816C30.7852 13.4816 30.5921 13.4016 30.4498 13.2593C30.3075 13.117 30.2275 12.9239 30.2275 12.7226V10.6989C30.2275 10.4976 30.3075 10.3046 30.4498 10.1623C30.5921 10.02 30.7852 9.94 30.9864 9.94C31.1877 9.94 31.3807 10.02 31.5231 10.1623C31.6654 10.3046 31.7453 10.4976 31.7453 10.6989V12.7226C31.7453 12.9239 31.6654 13.117 31.5231 13.2593C31.3807 13.4016 31.1877 13.4816 30.9864 13.4816ZM30.9864 9.43407C30.7852 9.43407 30.5921 9.35411 30.4498 9.21179C30.3075 9.06947 30.2275 8.87644 30.2275 8.67516V6.65142C30.2275 6.45015 30.3075 6.25712 30.4498 6.1148C30.5921 5.97247 30.7852 5.89252 30.9864 5.89252C31.1877 5.89252 31.3807 5.97247 31.5231 6.1148C31.6654 6.25712 31.7453 6.45015 31.7453 6.65142V8.67516C31.7453 8.87644 31.6654 9.06947 31.5231 9.21179C31.3807 9.35411 31.1877 9.43407 30.9864 9.43407Z" fill="#2AB7C6"/>
<g id="Group">
<path id="Vector_5" d="M45.4351 0.195649L44.7303 1.48376C44.4633 1.97233 44.0617 2.37407 43.5732 2.64134L42.2846 3.3456C42.2259 3.37812 42.177 3.42577 42.1429 3.4836C42.1088 3.54143 42.0908 3.60734 42.0908 3.67446C42.0908 3.74159 42.1088 3.80749 42.1429 3.86532C42.177 3.92315 42.2259 3.9708 42.2846 4.00332L43.5732 4.70809C44.0617 4.97536 44.4633 5.3771 44.7303 5.86567L45.4351 7.15378C45.4676 7.21251 45.5153 7.26145 45.5731 7.29554C45.6309 7.32962 45.6968 7.34759 45.7639 7.34759C45.8311 7.34759 45.897 7.32962 45.9548 7.29554C46.0126 7.26145 46.0603 7.21251 46.0928 7.15378L46.7971 5.86567C47.0642 5.37696 47.4659 4.97519 47.9547 4.70809L49.2428 4.00332C49.3015 3.9708 49.3504 3.92315 49.3845 3.86532C49.4186 3.80749 49.4366 3.74159 49.4366 3.67446C49.4366 3.60734 49.4186 3.54143 49.3845 3.4836C49.3504 3.42577 49.3015 3.37812 49.2428 3.3456L47.9547 2.64134C47.4659 2.37424 47.0642 1.97247 46.7971 1.48376L46.0948 0.195649C46.0625 0.136431 46.0148 0.0870162 45.9567 0.0525911C45.8987 0.018166 45.8324 0 45.765 0C45.6975 0 45.6312 0.018166 45.5732 0.0525911C45.5152 0.0870162 45.4675 0.136431 45.4351 0.195649Z" fill="#FFB45A"/>
<path id="Vector_6" d="M54.0686 6.54063L53.5045 7.57274C53.2902 7.96407 52.9684 8.28587 52.5771 8.50012L51.545 9.06424C51.4981 9.09068 51.4591 9.12909 51.432 9.17553C51.4049 9.22198 51.3906 9.2748 51.3906 9.32859C51.3906 9.38237 51.4049 9.43519 51.432 9.48164C51.4591 9.52809 51.4981 9.5665 51.545 9.59294L52.5771 10.1576C52.9683 10.3718 53.29 10.6934 53.5045 11.0844L54.0686 12.1165C54.095 12.1634 54.1334 12.2024 54.1799 12.2295C54.2263 12.2566 54.2791 12.2709 54.3329 12.2709C54.3867 12.2709 54.4395 12.2566 54.486 12.2295C54.5324 12.2024 54.5708 12.1634 54.5973 12.1165L55.1614 11.0844C55.3758 10.6934 55.6976 10.3718 56.0888 10.1576L57.1209 9.59294C57.1677 9.5665 57.2067 9.52809 57.2338 9.48164C57.2609 9.43519 57.2752 9.38237 57.2752 9.32859C57.2752 9.2748 57.2609 9.22198 57.2338 9.17553C57.2067 9.12909 57.1677 9.09068 57.1209 9.06424L56.0888 8.50012C55.6974 8.28587 55.3756 7.96407 55.1614 7.57274L54.5973 6.54063C54.5708 6.49379 54.5324 6.45482 54.486 6.4277C54.4395 6.40058 54.3867 6.38629 54.3329 6.38629C54.2791 6.38629 54.2263 6.40058 54.1799 6.4277C54.1334 6.45482 54.095 6.49379 54.0686 6.54063Z" fill="#FFB45A"/>
</g>
</g>
</svg>
