<svg width="55" height="51" viewBox="0 0 55 51" fill="none" xmlns="http://www.w3.org/2000/svg">
<g id="Group 34963">
<g id="Flat">
<g id="Color">
<path id="Vector" d="M27.4551 9.14364C14.1461 -6.23194 -3.55222 8.01473 1.95781 22.5935C3.79845 27.4997 7.91428 31.1591 9.07337 36.3324C9.65337 38.9187 9.21791 41.5579 9.88849 44.1259C10.7448 47.4019 12.7245 50.7538 16.5722 50.6624C25.2366 50.4565 22.741 35.628 27.4587 35.0791C32.172 35.628 29.6772 50.4565 38.3452 50.6624C42.1948 50.7538 44.1727 47.4019 45.029 44.1259C45.6996 41.5579 45.2641 38.9187 45.8441 36.3324C47.0032 31.1591 51.119 27.4997 52.9597 22.5935C58.4624 8.01473 40.764 -6.23194 27.4551 9.14364Z" fill="#E4F4FD"/>
<path id="Vector_2" d="M45.5973 1.92653L46.2093 0.812263C46.3443 0.566328 46.5429 0.361182 46.7843 0.218286C47.0257 0.0753913 47.301 0 47.5816 0C47.8621 0 48.1375 0.0753913 48.3789 0.218286C48.6203 0.361182 48.8189 0.566328 48.9538 0.812263L49.5649 1.92927C50.1395 2.97952 51.003 3.84307 52.0533 4.41761L53.1703 5.02872C53.4162 5.16368 53.6214 5.36225 53.7643 5.60366C53.9071 5.84506 53.9825 6.12044 53.9825 6.40097C53.9825 6.6815 53.9071 6.95687 53.7643 7.19828C53.6214 7.43969 53.4162 7.63826 53.1703 7.77322L52.0533 8.38432C51.003 8.95887 50.1395 9.82242 49.5649 10.8727L48.9538 11.9888C48.8189 12.2347 48.6203 12.4398 48.3789 12.5827C48.1375 12.7256 47.8621 12.801 47.5816 12.801C47.301 12.801 47.0257 12.7256 46.7843 12.5827C46.5429 12.4398 46.3443 12.2347 46.2093 11.9888L45.5973 10.8754C45.0228 9.82516 44.1592 8.96161 43.109 8.38707L41.992 7.77596C41.746 7.64101 41.5409 7.44244 41.398 7.20103C41.2551 6.95962 41.1797 6.68424 41.1797 6.40371C41.1797 6.12318 41.2551 5.84781 41.398 5.6064C41.5409 5.36499 41.746 5.16642 41.992 5.03147L43.109 4.42036C44.16 3.84434 45.0236 2.9788 45.5973 1.92653Z" fill="#01CADB"/>
<path id="Vector_3" d="M39.4465 14.9455L39.7887 14.3198C39.8641 14.1818 39.9753 14.0666 40.1106 13.9864C40.2459 13.9062 40.4003 13.8639 40.5576 13.8639C40.7149 13.8639 40.8692 13.9062 41.0045 13.9864C41.1398 14.0666 41.251 14.1818 41.3265 14.3198L41.6686 14.9455C41.9905 15.5337 42.4744 16.0173 43.0628 16.3388L43.6886 16.6809C43.8266 16.7564 43.9417 16.8676 44.0219 17.0029C44.1021 17.1382 44.1444 17.2926 44.1444 17.4498C44.1444 17.6071 44.1021 17.7615 44.0219 17.8968C43.9417 18.0321 43.8266 18.1433 43.6886 18.2188L43.0628 18.5609C42.4743 18.8827 41.9905 19.3666 41.6686 19.9551L41.3265 20.5809C41.251 20.7188 41.1398 20.834 41.0045 20.9142C40.8692 20.9944 40.7149 21.0367 40.5576 21.0367C40.4003 21.0367 40.2459 20.9944 40.1106 20.9142C39.9753 20.834 39.8641 20.7188 39.7887 20.5809L39.4465 19.9551C39.1245 19.3665 38.6407 18.8824 38.0523 18.56L37.4266 18.2178C37.2886 18.1424 37.1734 18.0312 37.0932 17.8959C37.013 17.7606 36.9707 17.6062 36.9707 17.4489C36.9707 17.2917 37.013 17.1373 37.0932 17.002C37.1734 16.8667 37.2886 16.7555 37.4266 16.68L38.0523 16.3379C38.6404 16.0164 39.1242 15.5332 39.4465 14.9455Z" fill="#01CADB"/>
<path id="Vector_4" d="M7.9969 8.94788C8.07216 9.04153 8.16513 9.11944 8.2705 9.17716C8.37588 9.23488 8.49159 9.27128 8.61103 9.28427C8.73047 9.29727 8.85131 9.28661 8.96663 9.25291C9.08195 9.21921 9.1895 9.16312 9.28315 9.08784C10.8433 7.81386 12.79 7.10775 14.8042 7.08528C15.0468 7.08528 15.2795 6.98889 15.451 6.81733C15.6226 6.64577 15.719 6.41308 15.719 6.17045C15.719 5.92782 15.6226 5.69513 15.451 5.52356C15.2795 5.352 15.0468 5.25562 14.8042 5.25562C12.3733 5.27845 10.0225 6.12722 8.13778 7.66254C7.94877 7.81438 7.82776 8.03505 7.80135 8.27605C7.77493 8.51706 7.84526 8.75869 7.9969 8.94788Z" fill="white"/>
<path id="Vector_5" d="M33.8587 12.6457C29.9084 12.6091 29.268 10.7245 28.2782 8.73475C28.169 8.5176 27.978 8.35271 27.7473 8.27637C27.5165 8.20002 27.2649 8.21847 27.0477 8.32765C26.8306 8.43683 26.6657 8.62781 26.5894 8.85856C26.513 9.08931 26.5315 9.34095 26.6406 9.5581L26.8291 9.9405C27.7073 11.7473 29.0348 14.4799 33.8632 14.4799C34.1059 14.4799 34.3386 14.3835 34.5101 14.2119C34.6817 14.0404 34.7781 13.8077 34.7781 13.5651C34.7781 13.3224 34.6817 13.0897 34.5101 12.9182C34.3386 12.7466 34.1059 12.6502 33.8632 12.6502L33.8587 12.6457Z" fill="#C9DFEB"/>
<path id="Vector_6" d="M6.41288 11.8881C6.91813 11.8881 7.32771 11.4785 7.32771 10.9733C7.32771 10.4681 6.91813 10.0585 6.41288 10.0585C5.90763 10.0585 5.49805 10.4681 5.49805 10.9733C5.49805 11.4785 5.90763 11.8881 6.41288 11.8881Z" fill="white"/>
<path id="Vector_7" d="M23.0545 29.1995C12.8176 24.7608 4.92256 19.334 1.35563 13.5038C1.35563 13.5148 1.34831 13.5257 1.34557 13.5376C0.625818 16.5488 0.839604 19.7077 1.95851 22.5945C3.79732 27.498 7.91406 31.1573 9.0759 36.3352C9.65224 38.9151 9.21312 41.5589 9.8901 44.1296C10.7409 47.4047 12.7261 50.753 16.5684 50.6615C25.241 50.4602 22.7435 35.6308 27.4549 35.0819C32.1662 35.6308 29.6688 50.4602 38.3414 50.6615C42.1836 50.753 44.1688 47.4047 45.0196 44.1296C45.6966 41.5589 45.2575 38.9151 45.8338 36.3352C45.9981 35.6118 46.2193 34.9024 46.4952 34.2137C39.2608 34.6776 31.7966 32.7482 23.0545 29.1995Z" fill="#FFC107"/>
<path id="Vector_8" d="M54.616 30.1235C53.6445 32.4188 51.0143 33.8661 46.9863 34.1853C39.5981 34.7708 31.9941 32.8287 23.0543 29.1995C12.3599 24.5613 4.20238 18.8445 0.88795 12.7143C0.417061 11.8938 0.125481 10.9828 0.0324431 10.0414C-0.0605949 9.09994 0.0470233 8.14949 0.348199 7.25271C1.36824 4.55121 6.46019 2.55047 10.0637 3.41042C8.93308 3.85021 7.86565 4.43776 6.88924 5.15774C4.9864 5.47793 2.79171 6.24456 2.03149 7.95713C1.83727 8.62639 1.78334 9.32854 1.87306 10.0196C1.96279 10.7107 2.19425 11.3758 2.55294 11.9732C5.16021 17.0871 13.4669 23.1799 23.7679 27.5162C32.3216 31.1115 40.9292 32.8222 46.8033 32.3648C49.6302 32.1453 52.3097 31.0145 52.9327 29.4099C53.1603 28.6226 53.1874 27.7909 53.0117 26.9905C52.8359 26.19 52.4629 25.4462 51.9264 24.8266C52.2417 24.2459 52.5228 23.6472 52.768 23.0336C54.5904 24.8403 55.6104 27.7742 54.616 30.1235Z" fill="#01CADB"/>
</g>
</g>
</g>
</svg>
