<svg width="58" height="41" viewBox="0 0 58 41" fill="none" xmlns="http://www.w3.org/2000/svg">
<g id="Group">
<path id="Vector" d="M54.3315 24.9426L56.8908 25.5227C57.5605 25.7715 58 26.3762 58 27.0491V32.799C58 33.5068 57.5761 34.1553 56.9018 34.4789C49.1905 38.1807 40.6445 40.1117 31.9735 40.1117H26.1435C17.4724 40.1117 8.80948 38.1807 1.09823 34.4789C0.423873 34.1552 0 33.5067 0 32.7989V27.0489C0 26.3761 0.43955 25.7714 1.10923 25.5226L3.15149 24.9424H54.3315V24.9426Z" fill="#FD9BA1"/>
<path id="Vector_2" d="M15.1373 32.5271C15.1373 29.4678 16.5417 26.7372 18.7402 24.9426H3.15149L1.10923 25.5227C0.43955 25.7715 0 26.3762 0 27.0489V32.7989C0 33.5067 0.423873 34.1552 1.09823 34.4788C6.4229 37.0349 12.2014 38.7462 18.123 39.561C16.283 37.7817 15.1373 35.2889 15.1373 32.5271Z" fill="#FD828A"/>
<g id="XMLID_3_">
<g id="Group_2">
<path id="Vector_3" d="M57.9991 7.83398V13.9926C57.9991 14.7133 57.5603 15.3614 56.89 15.6282L54.5313 16.5197H3.35073L1.10911 15.6282C0.438731 15.3614 0 14.7133 0 13.9926V7.83398C0 7.45375 0.106465 7.09106 0.295997 6.77986C0.485529 6.46748 0.760467 6.20658 1.09741 6.03343C8.80855 2.06847 17.355 0 26.0255 0H31.8566C36.1924 0 40.5259 0.517118 44.7389 1.53029C48.9518 2.5423 53.0467 4.05153 56.9017 6.03343C57.5755 6.3809 57.9991 7.07468 57.9991 7.83398Z" fill="#FD9BA1"/>
</g>
<g id="Group_3">
<path id="Vector_4" d="M18.5992 8.43417C18.5992 4.73759 20.7549 1.5448 23.8776 0.0436401C15.9475 0.356368 8.17093 2.39629 1.09741 6.03343C0.760467 6.20658 0.485529 6.46748 0.295997 6.77986C0.106465 7.09106 0 7.45375 0 7.83398V13.9926C0 14.7133 0.438731 15.3614 1.10911 15.6282L3.35073 16.5197H23.3019C20.4938 14.918 18.5992 11.8983 18.5992 8.43417Z" fill="#FD828A"/>
</g>
</g>
<g id="XMLID_2_">
<g id="Group_4">
<path id="Vector_5" d="M55.3997 10.4997C53.9934 9.7051 52.5366 9.30217 51.0697 9.30217C50.203 9.30217 49.3399 9.44397 48.489 9.72265C48.4497 9.69843 48.4112 9.67328 48.3709 9.65046C46.734 8.72527 45.0435 8.25623 43.3463 8.25623C42.1862 8.25623 41.0292 8.47572 39.8901 8.91C39.8417 8.8797 39.7939 8.84881 39.7439 8.8205C37.8825 7.76942 35.9641 7.23639 34.0423 7.23639C32.3476 7.23639 30.6557 7.65137 29.0005 8.4715C27.347 7.65195 25.6542 7.23639 23.9585 7.23639C22.0365 7.23639 20.1181 7.76942 18.2525 8.82284C17.0022 9.53183 16.2256 10.8667 16.2256 12.3066V16.5196H26.3094H31.6911H36.3932H41.7749H44.9174H50.2992H54.5321L56.8907 15.6281C57.0092 15.5809 57.12 15.5213 57.2229 15.452V13.6275C57.2231 12.3327 56.5238 11.134 55.3997 10.4997Z" fill="#FD828A"/>
<path id="Vector_6" d="M39.0846 20.3641V21.0684C39.0846 21.8944 38.502 22.6104 37.69 22.7648C35.2589 23.2281 32.8277 23.2281 30.3954 22.7648C29.5834 22.6104 29.0008 21.8944 29.0008 21.0684L28.2988 16.5828L29.0008 12.3066C29.0008 11.834 29.2535 11.3964 29.6642 11.1636C32.5832 9.51513 35.5022 9.51513 38.4212 11.1636C38.8319 11.3964 39.0846 11.834 39.0846 12.3066V12.9583L39.7866 16.7867L39.0846 20.3641Z" fill="#F9F7F8"/>
<path id="Vector_7" d="M18.9172 12.9583L19.8532 16.5148L18.9172 20.3641C18.9172 21.0625 18.4235 21.6674 17.7379 21.7984C15.6823 22.1892 13.6279 22.1892 11.5723 21.7984C10.8867 21.6674 10.393 21.0625 10.393 20.3641V19.6422L9.45703 16.3109L10.393 13.6275V12.9583C10.393 12.5593 10.6071 12.1896 10.9546 11.9931C13.422 10.5985 15.8882 10.5985 18.3557 11.9931C18.7031 12.1896 18.9172 12.5593 18.9172 12.9583Z" fill="#EFEDEF"/>
<path id="Vector_8" d="M10.3925 13.6275V19.6422C10.3925 20.2097 9.99239 20.7022 9.43549 20.8075C7.76597 21.1257 6.09646 21.1257 4.42694 20.8075C3.86887 20.7022 3.46875 20.2097 3.46875 19.6422V13.6275C3.46875 13.3023 3.64307 13.0016 3.92503 12.8425C5.92915 11.71 7.93328 11.71 9.9374 12.8425C10.2194 13.0016 10.3925 13.3023 10.3925 13.6275Z" fill="#E5E1E5"/>
<path id="Vector_9" d="M47.6082 19.6422V20.3641C47.6082 21.0625 47.1145 21.6674 46.4289 21.7984C44.3733 22.1892 42.3189 22.1892 40.2633 21.7984C39.5777 21.6674 39.084 21.0625 39.084 20.3641V12.9583C39.084 12.5593 39.2981 12.1896 39.6456 11.9931C42.113 10.5985 44.5792 10.5985 47.0467 11.9931C47.3941 12.1896 47.6082 12.5593 47.6082 12.9583V13.6275L48.5442 16.9225L47.6082 19.6422Z" fill="#EFEDEF"/>
<path id="Vector_10" d="M28.9998 12.3066V21.0684C28.9998 21.8944 28.4172 22.6104 27.6052 22.7648C25.1729 23.2281 22.7417 23.2281 20.3106 22.7648C19.4987 22.6104 18.916 21.8944 18.916 21.0684V20.3641V12.9583V12.3066C18.916 11.834 19.1687 11.3964 19.5794 11.1636C22.4984 9.51513 25.4174 9.51513 28.3364 11.1636C28.7471 11.3964 28.9998 11.834 28.9998 12.3066Z" fill="#F9F7F8"/>
<path id="Vector_11" d="M54.5322 13.6275V19.6422C54.5322 20.2097 54.132 20.7022 53.574 20.8075C51.9045 21.1257 50.2349 21.1257 48.5654 20.8075C48.0085 20.7022 47.6084 20.2097 47.6084 19.6422V13.6275C47.6084 13.3023 47.7815 13.0016 48.0635 12.8425C50.0676 11.71 52.0718 11.71 54.0759 12.8425C54.3578 13.0016 54.5322 13.3023 54.5322 13.6275Z" fill="#E5E1E5"/>
</g>
</g>
<g id="XMLID_1_">
<g id="Group_5">
<path id="Vector_12" d="M56.8909 25.5228L54.3316 24.9426H50.299H44.9173H41.7672H36.393H31.6834H26.3168H21.6072H16.233H7.70117V30.4058C7.70117 31.7742 8.43988 33.042 9.63042 33.7153C11.2671 34.6395 12.9573 35.1082 14.6542 35.1082C15.3165 35.1082 15.9776 35.0358 16.6353 34.8937C16.9846 35.6066 17.5429 36.2135 18.2566 36.618C20.118 37.6691 22.0363 38.2021 23.9582 38.2021C25.653 38.2021 27.3447 37.7872 29 36.967C30.6535 37.7866 32.3463 38.2021 34.042 38.2021C35.964 38.2021 37.8824 37.6691 39.7476 36.6158C40.4589 36.2125 41.0162 35.6064 41.3652 34.8939C42.0226 35.0359 42.6838 35.1082 43.346 35.1082C45.0429 35.1082 46.7331 34.6396 48.3712 33.7146C49.1073 33.2983 49.6702 32.6535 49.9926 31.8984C50.3505 31.9468 50.7097 31.9713 51.0694 31.9713C52.5364 31.9713 53.9933 31.5684 55.3983 30.7745C56.5236 30.1393 57.2227 28.9409 57.2227 27.6472V25.6871C57.1199 25.6224 57.0093 25.5668 56.8909 25.5228Z" fill="#FD828A"/>
<path id="Vector_13" d="M54.5316 22.4501V27.6471C54.5316 27.9711 54.3573 28.2718 54.0753 28.4309C52.0712 29.5634 50.0671 29.5634 48.0629 28.4309C47.781 28.2718 47.6078 27.9711 47.6078 27.6471L46.6719 25.2138L47.6078 23.8202V22.4501C47.6078 21.8827 48.008 21.3913 48.5649 21.2849C50.2344 20.9666 51.9039 20.9666 53.5734 21.2849C54.1315 21.3913 54.5316 21.8827 54.5316 22.4501Z" fill="#E5E1E5"/>
<path id="Vector_14" d="M39.084 30.4058V33.1318C39.084 33.6044 38.8313 34.042 38.4207 34.2748C35.5016 35.9233 32.5826 35.9233 29.6636 34.2748C29.2529 34.042 29.0002 33.6044 29.0002 33.1318L27.9473 27.5246L29.0002 25.1891C29.0002 24.3631 29.5829 23.6471 30.3948 23.4927C32.8271 23.0294 35.2583 23.0294 37.6894 23.4927C38.5014 23.6471 39.084 24.3631 39.084 25.1891L40.254 26.7771L39.084 30.4058Z" fill="#F9F7F8"/>
<path id="Vector_15" d="M3.15152 24.9426L1.10926 25.5228C0.990859 25.5668 0.880182 25.6224 0.777344 25.6869V27.6471C0.777344 28.9408 1.47651 30.1392 2.60071 30.7738C4.00687 31.5684 5.46369 31.9712 6.93069 31.9712C8.39769 31.9712 9.85451 31.5683 11.2595 30.7744C12.3842 30.1395 13.0828 28.9413 13.0828 27.6471V24.9426H3.15152Z" fill="#FD828A"/>
<path id="Vector_16" d="M18.9165 25.189L19.8524 27.4566L18.9165 30.4058C18.9165 30.8047 18.7024 31.1756 18.3549 31.3722C15.8875 32.7656 13.4212 32.7656 10.9538 31.3722C10.6063 31.1756 10.3922 30.8047 10.3922 30.4058V27.6471L8.98828 25.2138L10.3922 23.8202C10.3922 23.1217 10.8859 22.5157 11.5715 22.3846C13.6271 21.9939 15.6816 21.9939 17.7372 22.3846C18.4228 22.5157 18.9165 23.1217 18.9165 23.8202V25.189Z" fill="#EFEDEF"/>
<path id="Vector_17" d="M10.3925 23.8202V27.6471C10.3925 27.9711 10.2194 28.2718 9.9374 28.4309C7.93328 29.5634 5.92915 29.5634 3.92503 28.4309C3.64307 28.2718 3.46875 27.9711 3.46875 27.6471V22.4501C3.46875 21.8827 3.86887 21.3913 4.42694 21.2849C6.09646 20.9666 7.76597 20.9666 9.43549 21.2849C9.99239 21.3913 10.3925 21.8827 10.3925 22.4501V23.8202Z" fill="#E5E1E5"/>
<path id="Vector_18" d="M47.6082 27.6471V30.4058C47.6082 30.8047 47.3941 31.1756 47.0467 31.3722C44.5792 32.7656 42.113 32.7656 39.6456 31.3722C39.2981 31.1756 39.084 30.8047 39.084 30.4058V25.189V23.8202C39.084 23.1217 39.5777 22.5157 40.2633 22.3846C42.3189 21.9939 44.3733 21.9939 46.4289 22.3846C47.1145 22.5157 47.6082 23.1217 47.6082 23.8202V27.6471Z" fill="#EFEDEF"/>
<path id="Vector_19" d="M28.9998 25.189V33.1318C28.9998 33.6045 28.7471 34.042 28.3364 34.2749C25.4174 35.9233 22.4984 35.9233 19.5794 34.2749C19.1687 34.042 18.916 33.6045 18.916 33.1318V30.4058V25.189C18.916 24.3631 19.4987 23.647 20.3106 23.4926C22.7417 23.0293 25.1729 23.0293 27.6052 23.4926C28.4172 23.647 28.9998 24.3631 28.9998 25.189Z" fill="#F9F7F8"/>
</g>
</g>
</g>
</svg>
