<svg width="51" height="51" viewBox="0 0 51 51" fill="none" xmlns="http://www.w3.org/2000/svg">
<g id="Group">
<path id="Vector" d="M37.4695 28.0411C37.4716 27.0812 37.3362 26.1259 37.0673 25.2045C36.6441 25.5016 36.1662 25.7116 35.6612 25.8225C35.1561 25.9333 34.6341 25.9428 34.1255 25.8502C33.6168 25.7576 33.1316 25.5649 32.698 25.2832C32.2644 25.0015 31.8911 24.6365 31.5998 24.2094C31.0508 24.7073 30.3918 25.0682 29.6766 25.2625C28.9613 25.4567 28.2103 25.4788 27.4848 25.327C26.7594 25.1752 26.0803 24.8537 25.503 24.3889C24.9257 23.9241 24.4667 23.3292 24.1635 22.653C23.8001 23.0281 23.3651 23.3264 22.8841 23.5301C22.4032 23.7338 21.8863 23.8388 21.364 23.8388C20.8417 23.8388 20.3247 23.7338 19.8438 23.5301C19.3629 23.3264 18.9278 23.0281 18.5644 22.653C18.2607 23.3311 17.8002 23.9274 17.2209 24.3927C16.6416 24.8581 15.9601 25.1792 15.2324 25.3296C14.5048 25.48 13.7518 25.4553 13.0355 25.2578C12.3192 25.0602 11.6601 24.6953 11.1124 24.1931C10.8237 24.6205 10.4531 24.9866 10.0222 25.2701C9.59123 25.5536 9.10841 25.749 8.60157 25.845C8.09473 25.9409 7.5739 25.9356 7.06914 25.8292C6.56438 25.7228 6.08568 25.5176 5.66065 25.2253C5.3967 26.1405 5.26413 27.0886 5.2669 28.0411C5.25629 29.401 5.52677 30.7484 6.06137 31.9988C6.59597 33.2492 7.38317 34.3756 8.37359 35.3075C9.07084 35.9265 9.62789 36.6873 10.0075 37.5389C10.3871 38.3905 10.5804 39.3133 10.5747 40.2457C10.5696 40.3672 10.5696 40.4836 10.5696 40.6057C10.5428 42.4533 10.9191 44.2845 11.6722 45.9719C12.4254 47.6592 13.5374 49.1621 14.9307 50.3758C15.1202 50.5311 15.3501 50.6291 15.5935 50.6581C15.8368 50.6872 16.0833 50.6461 16.3041 50.5397C16.5248 50.4333 16.7106 50.266 16.8395 50.0576C16.9684 49.8492 17.035 49.6083 17.0316 49.3633C17.0265 49.199 17.0265 49.0297 17.0265 48.8604C17.0265 42.2791 18.9688 36.9354 21.3662 36.9354C23.7636 36.9354 25.7115 42.2758 25.7115 48.8604C25.7115 49.0291 25.7115 49.1979 25.7059 49.3633C25.7026 49.6083 25.7694 49.8492 25.8983 50.0576C26.0273 50.2659 26.2131 50.4331 26.4338 50.5395C26.6546 50.6459 26.9012 50.687 27.1445 50.658C27.3878 50.629 27.6178 50.5311 27.8074 50.3758C29.2007 49.1621 30.3126 47.6592 31.0658 45.9719C31.819 44.2845 32.1953 42.4533 32.1685 40.6057C32.1685 40.4836 32.1685 40.3672 32.1628 40.2457C32.1572 39.3133 32.3508 38.3904 32.7306 37.5388C33.1104 36.6871 33.6676 35.9264 34.365 35.3075C35.355 34.3755 36.1418 33.2489 36.676 31.9985C37.2102 30.7481 37.4804 29.4008 37.4695 28.0411Z" fill="#37D4E9"/>
<path id="Vector_2" d="M11.8291 6.9491H30.6751V16.3721H11.8291V6.9491Z" fill="#FFC26F"/>
<g id="Group_2">
<path id="Vector_3" d="M17.0244 12.5387V6.95251C17.0244 6.69144 16.9207 6.44106 16.7361 6.25646C16.5515 6.07185 16.3011 5.96814 16.04 5.96814C15.779 5.96814 15.5286 6.07185 15.344 6.25646C15.1594 6.44106 15.0557 6.69144 15.0557 6.95251V12.5387C15.0557 12.7998 15.1594 13.0502 15.344 13.2348C15.5286 13.4194 15.779 13.5231 16.04 13.5231C16.3011 13.5231 16.5515 13.4194 16.7361 13.2348C16.9207 13.0502 17.0244 12.7998 17.0244 12.5387Z" fill="#F89068"/>
<path id="Vector_4" d="M22.2393 12.5387V6.95251C22.2393 6.69144 22.1355 6.44106 21.9509 6.25646C21.7663 6.07185 21.516 5.96814 21.2549 5.96814C20.9938 5.96814 20.7434 6.07185 20.5588 6.25646C20.3742 6.44106 20.2705 6.69144 20.2705 6.95251V12.5387C20.2705 12.7998 20.3742 13.0502 20.5588 13.2348C20.7434 13.4194 20.9938 13.5231 21.2549 13.5231C21.516 13.5231 21.7663 13.4194 21.9509 13.2348C22.1355 13.0502 22.2393 12.7998 22.2393 12.5387Z" fill="#F89068"/>
<path id="Vector_5" d="M27.4531 12.5387V6.95251C27.4531 6.69144 27.3494 6.44106 27.1648 6.25646C26.9802 6.07185 26.7298 5.96814 26.4688 5.96814C26.2077 5.96814 25.9573 6.07185 25.7727 6.25646C25.5881 6.44106 25.4844 6.69144 25.4844 6.95251V12.5387C25.4844 12.7998 25.5881 13.0502 25.7727 13.2348C25.9573 13.4194 26.2077 13.5231 26.4688 13.5231C26.7298 13.5231 26.9802 13.4194 27.1648 13.2348C27.3494 13.0502 27.4531 12.7998 27.4531 12.5387Z" fill="#F89068"/>
</g>
<g id="Group_3">
<path id="Vector_6" d="M3.96484 22.0101C3.96796 23.045 4.38048 24.0367 5.11233 24.7686C5.84417 25.5004 6.83587 25.9129 7.87084 25.9161C8.51048 25.9142 9.13996 25.7559 9.70446 25.4552C10.269 25.1544 10.7514 24.7202 11.1097 24.1903C11.6572 24.6933 12.3163 25.059 13.0328 25.2573C13.7494 25.4556 14.5027 25.4807 15.2309 25.3307C15.9591 25.1807 16.6411 24.8598 17.2209 24.3944C17.8007 23.929 18.2616 23.3326 18.5657 22.6541C18.9284 23.0291 19.3628 23.3272 19.843 23.5308C20.3233 23.7344 20.8396 23.8393 21.3613 23.8393C21.8829 23.8393 22.3993 23.7344 22.8795 23.5308C23.3598 23.3272 23.7942 23.0291 24.1569 22.6541C24.53 23.48 25.1333 24.1809 25.8945 24.6727C26.6557 25.1645 27.5425 25.4265 28.4488 25.4273C29.6132 25.428 30.7358 24.9927 31.5954 24.2072C31.9352 24.7066 32.3863 25.1203 32.9133 25.4156C33.4402 25.711 34.0285 25.8799 34.6318 25.9091C35.2352 25.9384 35.8371 25.8271 36.3901 25.5841C36.9431 25.341 37.4321 24.9729 37.8185 24.5087C38.205 24.0444 38.4784 23.4968 38.6172 22.9089C38.756 22.321 38.7563 21.7089 38.6182 21.1209C38.4801 20.5329 38.2073 19.9849 37.8214 19.5202C37.4354 19.0556 36.9468 18.6869 36.3941 18.4433C36.6812 17.7309 36.7888 16.959 36.7075 16.1953C36.6261 15.4316 36.3583 14.6996 35.9276 14.0638C35.4969 13.4279 34.9164 12.9077 34.2374 12.5489C33.5584 12.19 32.8016 12.0036 32.0336 12.006C31.5736 12.0047 31.1161 12.0726 30.6763 12.2074V16.3699H11.8325V12.006H11.7808C11.163 12.0047 10.5511 12.1254 9.98007 12.3612C9.40905 12.5969 8.89018 12.943 8.4532 13.3797C8.01622 13.8163 7.66973 14.335 7.4336 14.9058C7.19747 15.4766 7.07634 16.0885 7.07716 16.7063C7.0768 17.1967 7.15446 17.6841 7.30722 18.1502C6.37926 18.2846 5.53073 18.7486 4.91695 19.4575C4.30316 20.1663 3.96517 21.0724 3.96484 22.0101Z" fill="#D8E1EB"/>
<path id="Vector_7" d="M1.92206 10.8872C2.98359 10.8872 3.84412 10.0267 3.84412 8.96515C3.84412 7.90363 2.98359 7.04309 1.92206 7.04309C0.860537 7.04309 0 7.90363 0 8.96515C0 10.0267 0.860537 10.8872 1.92206 10.8872Z" fill="#D8E1EB"/>
<path id="Vector_8" d="M49.0081 20.6578C49.0082 20.2631 48.8913 19.8772 48.672 19.5489C48.4528 19.2206 48.1412 18.9647 47.7765 18.8136C47.4118 18.6624 47.0105 18.6228 46.6233 18.6998C46.2362 18.7767 45.8805 18.9668 45.6013 19.2458C45.3222 19.5249 45.132 19.8805 45.055 20.2677C44.9779 20.6548 45.0174 21.0562 45.1685 21.4209C45.3195 21.7856 45.5753 22.0973 45.9035 22.3166C46.2317 22.5359 46.6176 22.653 47.0124 22.653C47.2744 22.6531 47.5339 22.6015 47.7761 22.5013C48.0182 22.4011 48.2382 22.2541 48.4235 22.0688C48.6089 21.8835 48.7559 21.6636 48.8562 21.4215C48.9565 21.1794 49.0081 20.9199 49.0081 20.6578Z" fill="#D8E1EB"/>
</g>
<path id="Vector_9" d="M32.1901 6.9525C33.3559 6.95238 34.5041 7.2366 35.5353 7.7805L40.7165 10.5148C41.7476 11.0588 42.8958 11.3432 44.0617 11.3434H50.6255V4.39087H44.0617C42.8958 4.391 41.7475 4.10658 40.7165 3.56231L35.5353 0.828562C34.5043 0.284227 33.356 -0.000193274 32.1901 1.11749e-07H9.49548C9.3095 -7.37756e-05 9.12533 0.0364932 8.9535 0.107611C8.78166 0.17873 8.62551 0.283005 8.49398 0.414483C8.36245 0.545961 8.25811 0.702064 8.18693 0.873875C8.11574 1.04569 8.0791 1.22984 8.0791 1.41581V5.53612C8.0791 5.72213 8.11574 5.90631 8.18692 6.07815C8.2581 6.24999 8.36243 6.40613 8.49395 6.53765C8.62547 6.66918 8.78161 6.77351 8.95345 6.84469C9.1253 6.91586 9.30948 6.9525 9.49548 6.9525H32.1901Z" fill="#F76363"/>
</g>
</svg>
