<svg width="51" height="51" viewBox="0 0 51 51" fill="none" xmlns="http://www.w3.org/2000/svg">
<g id="003-smile" clip-path="url(#clip0_96_1799)">
<path id="Vector" d="M0 19.502C0.879118 20.5583 1.76451 21.6071 2.6521 22.6535C7.10558 27.9047 11.4371 33.0699 17.241 36.201C22.8152 39.2083 28.17 39.216 33.7588 36.201C39.5626 33.0699 43.8941 27.9047 48.3476 22.6536C49.2352 21.6072 50.1206 20.5584 50.9997 19.5021H0V19.502Z" fill="#F58A97"/>
<path id="Vector_2" d="M50.9997 19.5016C50.1207 20.558 49.2345 21.6073 48.3472 22.6536C43.8937 27.9042 39.562 33.0697 33.7585 36.2011C29.0578 38.7366 24.5241 39.1347 19.8848 37.4083C23.7978 38.3253 27.6648 37.7129 31.6507 35.562C37.4542 32.4316 41.7857 27.2661 46.2394 22.0145C46.9512 21.1754 47.3933 20.3528 47.9288 19.5015H50.9997V19.5016Z" fill="#F07281"/>
<path id="Vector_3" d="M45.1163 19.9403C42.7556 24.6154 39.0804 27.5311 35.5483 29.3454C29.0717 32.6721 21.9907 32.7051 15.4835 29.4388C11.9346 27.6576 8.23232 24.7762 5.82812 20.1232L45.1163 19.9403Z" fill="#E53950"/>
<path id="Vector_4" d="M45.1161 19.9407C42.755 24.6159 39.0798 27.5309 35.5473 29.3454C29.2873 32.561 22.4623 32.6995 16.1367 29.7537C21.8684 31.7907 27.9047 31.3722 33.4917 28.5023C36.8037 26.8006 40.2409 24.1317 42.602 19.9519L45.1161 19.9407Z" fill="#CA2E43"/>
<g id="Group">
<g id="Group_2">
<path id="Vector_5" d="M20.5029 19.7623V24.6836C20.5029 25.2248 20.9415 25.6634 21.4827 25.6634H24.5156C25.0567 25.6634 25.4954 25.2248 25.4954 24.6836V19.7623C25.4954 18.3836 24.3777 17.266 22.9991 17.266C21.6206 17.266 20.5029 18.3835 20.5029 19.7623Z" fill="#EEF5F6"/>
<path id="Vector_6" d="M25.5029 19.7623V24.6836C25.5029 25.2248 25.9415 25.6634 26.4827 25.6634H29.5156C30.0567 25.6634 30.4954 25.2248 30.4954 24.6836V19.7623C30.4954 18.3836 29.3777 17.266 27.9991 17.266C26.6206 17.266 25.5029 18.3835 25.5029 19.7623Z" fill="#EEF5F6"/>
<path id="Vector_7" d="M30.4971 20.5428V24.7849C30.4971 25.2513 30.8752 25.6294 31.3416 25.6294H33.9559C34.4224 25.6294 34.8005 25.2513 34.8005 24.7849V20.5428C34.8005 19.3545 33.8372 18.3911 32.6488 18.3911C31.4604 18.3912 30.4971 19.3545 30.4971 20.5428Z" fill="#EEF5F6"/>
<path id="Vector_8" d="M34.7998 19.9009V23.382C34.7998 23.8233 35.1575 24.181 35.5988 24.181H38.0724C38.5137 24.181 38.8714 23.8233 38.8714 23.382V19.3684C38.8714 19.336 38.8706 19.3039 38.8691 19.2719C38.8181 18.1782 37.6882 17.4743 36.6613 17.854C35.8581 18.1511 34.9055 18.7447 34.7998 19.9009Z" fill="#EEF5F6"/>
<path id="Vector_9" d="M20.5026 20.5768V24.8188C20.5026 25.2852 20.1245 25.6633 19.6581 25.6633H17.0438C16.5773 25.6633 16.1992 25.2852 16.1992 24.8188V20.5768C16.1992 19.3885 17.1625 18.425 18.3509 18.425C19.5393 18.425 20.5026 19.3884 20.5026 20.5768Z" fill="#EEF5F6"/>
<path id="Vector_10" d="M16.1995 19.9009V23.382C16.1995 23.8233 15.8418 24.181 15.4005 24.181H12.9269C12.4856 24.181 12.1279 23.8233 12.1279 23.382V19.3684C12.1279 19.336 12.1287 19.3039 12.1302 19.2719C12.1812 18.1782 13.3111 17.4743 14.338 17.854C15.1412 18.1511 16.0937 18.7447 16.1995 19.9009Z" fill="#EEF5F6"/>
</g>
<path id="Vector_11" d="M25.4955 19.7622V24.6836C25.4955 25.2251 25.0575 25.6631 24.516 25.6631H22.4799C23.0215 25.6631 23.4595 25.2251 23.4595 24.6836V19.7622C23.4595 18.7468 22.8533 17.8718 21.9814 17.483C22.2922 17.3425 22.6369 17.2656 23 17.2656C24.3785 17.2656 25.4955 18.3836 25.4955 19.7622Z" fill="#DEECF1"/>
<path id="Vector_12" d="M30.4955 19.7622V24.6836C30.4955 25.2251 30.0575 25.6631 29.516 25.6631H27.4799C28.0215 25.6631 28.4595 25.2251 28.4595 24.6836V19.7622C28.4595 18.7468 27.8533 17.8718 26.9814 17.482C27.2922 17.3425 27.6359 17.2656 27.999 17.2656C29.3785 17.2656 30.4955 18.3836 30.4955 19.7622Z" fill="#DEECF1"/>
<path id="Vector_13" d="M34.8003 20.5427V24.785C34.8003 25.2517 34.4218 25.6291 33.9551 25.6291H31.9201C32.3858 25.6291 32.7643 25.2517 32.7643 24.785V20.5427C32.7643 19.7231 32.3057 19.0102 31.6309 18.6461C31.9335 18.483 32.2801 18.3907 32.6484 18.3907C33.8362 18.3907 34.8003 19.3549 34.8003 20.5427Z" fill="#DEECF1"/>
<path id="Vector_14" d="M38.8712 19.3683V23.3819C38.8712 23.823 38.5132 24.1809 38.0722 24.1809H36.0361C36.4782 24.1809 36.8351 23.8229 36.8351 23.3819V19.3683C36.8351 19.3365 36.8351 19.3037 36.833 19.2719C36.8084 18.7621 36.55 18.3354 36.1766 18.0666C36.3387 17.9825 36.5027 17.9128 36.6618 17.8543C37.6886 17.4738 38.8178 18.1784 38.8691 19.2719C38.8702 19.3037 38.8712 19.3365 38.8712 19.3683Z" fill="#DEECF1"/>
<path id="Vector_15" d="M20.5025 20.5766V24.8189C20.5025 25.2856 20.124 25.6631 19.6573 25.6631H17.6223C18.088 25.6631 18.4664 25.2856 18.4664 24.8189V20.5766C18.4664 19.9827 18.2254 19.4442 17.8366 19.0555C17.6889 18.9078 17.5186 18.7806 17.333 18.6801C17.6356 18.5169 17.9823 18.4247 18.3505 18.4247C18.9454 18.4247 19.4829 18.6657 19.8726 19.0555C20.2615 19.4442 20.5025 19.9826 20.5025 20.5766Z" fill="#DEECF1"/>
<path id="Vector_16" d="M16.1987 19.9007V23.382C16.1987 23.8231 15.8418 24.181 15.3997 24.181H13.3646C13.8057 24.181 14.1636 23.823 14.1636 23.382V19.9007C14.0775 18.9724 13.4477 18.4073 12.7861 18.0667C13.2128 17.7569 13.7893 17.6513 14.337 17.8544C15.1412 18.1508 16.0931 18.7447 16.1987 19.9007Z" fill="#DEECF1"/>
</g>
<path id="Vector_17" d="M25.5105 21.372C38.8908 21.31 50.989 19.5063 50.989 19.5063C48.4782 18.2587 45.9353 17.0836 43.4355 15.8113C38.2029 13.1481 31.183 7.63359 25.4999 12.5795C19.8167 7.63359 12.7968 13.1481 7.5642 15.8113C5.06445 17.0836 2.52155 18.2588 0.0107422 19.5063C0.0107422 19.5063 12.1089 21.31 25.4892 21.372V21.3721C25.4928 21.3721 25.4963 21.372 25.4999 21.372C25.5035 21.372 25.507 21.3721 25.5105 21.3721V21.372Z" fill="#F58A97"/>
<path id="Vector_18" d="M50.9883 19.5067C50.9883 19.5067 49.7369 19.6935 47.5953 19.9477C45.506 18.9292 43.4033 17.9415 41.3303 16.886C36.9258 14.6448 31.2567 10.3841 26.1836 12.0386C31.7389 8.06705 38.411 13.2541 43.4351 15.8111C45.9347 17.084 48.4774 18.2585 50.9883 19.5067Z" fill="#F07281"/>
<g id="Group_3">
<path id="Vector_19" d="M42.3052 36.4898C41.9724 37.1954 41.0088 38.9185 39.3106 39.5047C39.179 39.5501 39.179 39.7373 39.3106 39.7827C41.0088 40.3689 41.9724 42.0919 42.3052 42.7976C42.3584 42.9105 42.5191 42.9105 42.5724 42.7976C42.9052 42.092 43.8688 40.3689 45.567 39.7827C45.6986 39.7373 45.6986 39.5501 45.567 39.5047C43.8688 38.9185 42.9052 37.1955 42.5724 36.4898C42.5191 36.3769 42.3584 36.3769 42.3052 36.4898Z" fill="#FEC165"/>
<path id="Vector_20" d="M45.5671 39.7825C43.8696 40.3691 42.9053 42.0924 42.573 42.798C42.5197 42.9108 42.3586 42.9108 42.3053 42.798C42.1505 42.4677 41.857 41.9159 41.415 41.361C41.773 40.9118 42.2295 40.4605 42.7885 40.125C43.1546 39.9055 43.1546 39.3824 42.7885 39.1619C42.2295 38.8265 41.773 38.3751 41.415 37.9259C41.8571 37.372 42.1505 36.8202 42.3053 36.4899C42.3586 36.3771 42.5197 36.3771 42.573 36.4899C42.9053 37.1955 43.8696 38.9188 45.5671 39.5045C45.6994 39.5506 45.6994 39.7373 45.5671 39.7825Z" fill="#FDB441"/>
<path id="Vector_21" d="M9.59439 1.17627C9.13605 2.14805 7.80885 4.52136 5.46992 5.32874C5.28867 5.39131 5.28867 5.64908 5.46992 5.71165C7.80875 6.51903 9.13605 8.89234 9.59439 9.86412C9.66772 10.0196 9.88912 10.0196 9.96236 9.86412C10.4207 8.89234 11.7479 6.51903 14.0868 5.71165C14.2681 5.64908 14.2681 5.39131 14.0868 5.32874C11.7479 4.52146 10.4207 2.14815 9.96236 1.17627C9.88902 1.02083 9.66762 1.02083 9.59439 1.17627Z" fill="#FEC165"/>
<path id="Vector_22" d="M14.0869 5.71163C11.7483 6.51891 10.421 8.89231 9.96255 9.8637C9.88971 10.0196 9.66822 10.0196 9.59428 9.8637C9.42809 9.51287 9.1481 8.97751 8.74805 8.4C9.2589 7.63178 10.0004 6.75684 10.9912 6.15881C11.4713 5.86856 11.4713 5.17208 10.9912 4.88183C10.0004 4.28379 9.2588 3.40896 8.74805 2.64064C9.1481 2.06214 9.42809 1.52777 9.59428 1.17594C9.66812 1.0211 9.88971 1.0211 9.96255 1.17594C10.4211 2.14832 11.7483 4.52183 14.0869 5.32901C14.2686 5.39159 14.2686 5.64905 14.0869 5.71163Z" fill="#FDB441"/>
<path id="Vector_23" d="M34.735 41.136C34.2767 42.1078 32.9495 44.4811 30.6105 45.2885C30.4293 45.351 30.4293 45.6088 30.6105 45.6714C32.9495 46.4786 34.2767 48.852 34.735 49.8238C34.8083 49.9793 35.0297 49.9793 35.103 49.8238C35.5613 48.8521 36.8885 46.4787 39.2275 45.6714C39.4087 45.6088 39.4087 45.351 39.2275 45.2885C36.8885 44.4812 35.5613 42.1079 35.103 41.136C35.0297 40.9805 34.8083 40.9805 34.735 41.136Z" fill="#FEC165"/>
<path id="Vector_24" d="M39.2275 45.6712C36.8889 46.4785 35.5616 48.8519 35.1032 49.8233C35.0303 49.9792 34.8088 49.9792 34.7349 49.8233C34.5687 49.4725 34.2887 48.9371 33.8887 48.3596C34.3995 47.5914 35.141 46.7164 36.1319 46.1184C36.6119 45.8282 36.6119 45.1317 36.1319 44.8414C35.141 44.2434 34.3994 43.3685 33.8887 42.6002C34.2887 42.0217 34.5687 41.4874 34.7349 41.1355C34.8087 40.9807 35.0303 40.9807 35.1032 41.1355C35.5617 42.1079 36.8889 44.4814 39.2275 45.2886C39.4092 45.3512 39.4092 45.6086 39.2275 45.6712Z" fill="#FDB441"/>
</g>
</g>
<defs>
<clipPath id="clip0_96_1799">
<rect width="51" height="51" fill="white"/>
</clipPath>
</defs>
</svg>
