<svg width="64" height="64" viewBox="0 0 64 64" fill="none" xmlns="http://www.w3.org/2000/svg">
<g id="005-tooth-whitening" clip-path="url(#clip0_96_2238)">
<g id="Group">
<path id="Vector" d="M53.0024 5.70675L44.4752 4.50149C40.2301 3.90149 36.0013 5.69712 33.4847 9.1681C32.7035 10.2458 31.0976 10.2458 30.3163 9.1681C27.7999 5.69712 23.5709 3.90149 19.3258 4.50149L10.7986 5.70675C10.0582 5.81137 9.34176 5.97877 8.65422 6.20264C8.65422 6.20264 8.33162 6.34372 8.16449 6.40624C2.8256 8.40264 -0.468999 13.8691 0.280679 19.754C0.504683 21.5129 1.95012 22.6819 3.72329 22.6819L60.1555 22.6875C60.5635 22.6875 60.8582 22.6402 61.2248 22.5113C61.3746 22.4587 61.8075 22.4149 61.8075 22.4149C62.8142 21.8998 63.547 20.9122 63.6985 19.7234C64.566 12.9121 59.8008 6.66772 53.0024 5.70675Z" fill="#E27F86"/>
<path id="Vector_2" d="M61.5254 19.8589L61.3662 18.8242C60.9464 16.0925 58.6345 14.1092 55.8707 14.1092C54.3798 14.1092 53.0218 14.6869 52.0209 15.6472C51.8206 15.8393 51.5073 15.8394 51.307 15.6473C50.3051 14.6869 48.9471 14.1092 47.4561 14.1092C45.7895 14.1092 44.287 14.8308 43.2645 16.0031C43.0747 16.2208 42.7429 16.2417 42.5316 16.0449C41.2313 14.834 39.4861 14.1092 37.5756 14.1092C35.4916 14.1092 33.6037 14.9711 32.2738 16.3862C32.0711 16.6019 31.7297 16.6019 31.5268 16.3862C30.1969 14.9711 28.309 14.1092 26.225 14.1092C24.3143 14.1092 22.57 14.8352 21.2681 16.0464C21.0566 16.2431 20.7248 16.2219 20.5351 16.0042C19.5135 14.8317 18.0111 14.1092 16.3445 14.1092C14.8533 14.1092 13.4953 14.687 12.4934 15.6466C12.2931 15.8384 11.98 15.8382 11.7799 15.6464C10.7789 14.6869 9.42085 14.1092 7.92984 14.1092C5.66322 14.092 3.67619 15.492 2.81098 17.5056C2.69942 17.7652 2.31072 17.6762 2.31919 17.3938C2.45912 12.6862 4.92394 8.46302 8.66501 6.1991C3.03344 8.02579 -0.671043 13.6497 0.101741 19.7228C0.213422 20.6034 0.644743 21.3724 1.26862 21.9218C1.81599 22.384 2.65783 22.8178 3.59596 22.7998H5.90661H60.2043C60.7794 22.7998 61.3256 22.6625 61.807 22.4147C61.7506 21.5586 61.655 20.7036 61.5254 19.8589Z" fill="#DF646E"/>
<path id="Vector_3" d="M61.1522 48.7846L2.72768 48.6945C1.30971 48.6945 0.160292 47.545 0.160292 46.1271L0.115234 37.387C0.115234 36.422 0.585837 35.6461 1.373 35.2075C1.56157 35.1025 1.92589 34.8442 1.92589 34.8442C2.13102 34.7914 2.34617 34.7633 2.56786 34.7633H61.2327C62.6507 34.7633 63.8001 35.9127 63.8001 37.3307V46.3166C63.8001 46.5384 63.772 46.7537 63.7191 46.959C63.7191 46.959 63.297 47.5167 63.105 47.7769C62.6376 48.4105 62.0001 48.7846 61.1522 48.7846Z" fill="#B9C3CD"/>
<g id="Group_2">
<path id="Vector_4" d="M47.4565 15.9069C46.9005 15.9069 46.3694 16.0283 45.8906 16.2476C45.8906 16.2476 45.5479 16.5256 45.3823 16.6361C44.5291 17.2057 44.0567 18.0538 43.891 19.1311L43.3993 22.2662L43.3857 26.5574C43.3857 27.6208 44.2479 28.483 45.3113 28.483L49.6649 28.5595C50.6223 28.5595 51.4345 27.9099 51.5952 27.0054C51.6131 26.9052 51.6634 26.7002 51.6634 26.7002V22.2663L51.176 19.0979C50.8937 17.2622 49.314 15.9069 47.4565 15.9069Z" fill="#F9F8F9"/>
<path id="Vector_5" d="M51.6637 26.6996C51.6637 27.7638 50.8011 28.6252 49.7382 28.6252H45.1747C44.1118 28.6252 43.2491 27.7638 43.2491 26.6996L42.9736 24.6211L43.2491 22.2658L43.7369 19.0976C43.9346 17.8113 44.7689 16.7612 45.8908 16.2477L45.4147 20.3479C45.2555 21.7241 45.1747 23.1079 45.1747 24.493V25.5443C45.1747 26.1823 45.692 26.6996 46.33 26.6996H51.6637Z" fill="#E8E8E8"/>
</g>
<path id="Vector_6" d="M63.7186 46.959C63.4336 48.0655 62.4286 48.8845 61.2322 48.8845H2.56739C1.14891 48.8845 0 47.7343 0 46.3171V37.3313C0 36.1349 0.817585 35.1291 1.92541 34.8442L1.92554 45.8036C1.92554 46.4416 2.44287 46.959 3.08087 46.959H63.7186Z" fill="#A2ABB8"/>
<path id="Vector_7" d="M25.5252 38.6149L26.1571 41.8645L25.5252 45.0333H15.1979L14.4609 41.8235L15.1979 38.6149H25.5252Z" fill="#E8E8E8"/>
<path id="Vector_8" d="M48.4744 38.6149L49.2468 41.8235L48.4744 45.0333H36.9995L36.3115 41.8645L36.9995 38.6149H48.4744Z" fill="#FFE07D"/>
<path id="Vector_9" d="M30.3003 53.3049L27.4402 57.5602C26.9211 58.3206 27.3419 59.3834 28.2625 59.3834L28.2816 59.4125H34.2569C35.1775 59.4125 35.7221 58.3815 35.2029 57.621L32.3534 53.4468L32.1927 53.3049C31.7377 52.6386 30.7551 52.6386 30.3003 53.3049Z" fill="#B9C3CD"/>
<path id="Vector_10" d="M32.3532 53.4468L28.2815 59.4126L28.2674 59.4122C27.347 59.4122 26.8027 58.3814 27.3213 57.6214L30.3161 53.235C30.7706 52.5688 31.7539 52.5688 32.2083 53.235L32.3532 53.4468Z" fill="#A2ABB8"/>
<path id="Vector_11" d="M15.1981 38.6149V45.0333H4.49341C4.13911 45.0333 3.85156 44.7458 3.85156 44.3915V39.2567C3.85156 38.9011 4.13911 38.6149 4.49341 38.6149H15.1981Z" fill="#DCDBDD"/>
<path id="Vector_12" d="M25.5254 38.6149H36.9991V45.0333H25.5254V38.6149Z" fill="#F9F8F9"/>
<path id="Vector_13" d="M59.9486 39.2567V44.3915C59.9486 44.7458 59.661 45.0333 59.3067 45.0333H48.4736V38.6149H59.3067C59.661 38.6149 59.9486 38.9011 59.9486 39.2567Z" fill="#FFD064"/>
<g id="Group_3">
<path id="Vector_14" d="M37.5748 15.9069C36.1357 15.9069 34.8112 16.4662 33.8254 17.3925C33.8254 17.3925 33.6145 17.7864 33.4796 17.9459C32.846 18.6944 32.4552 19.5527 32.2969 20.5816L32.0347 22.2909V27.3905C31.9001 28.4294 32.8148 29.4881 33.8783 29.4881L41.1598 29.5045C42.1436 29.5045 43.0617 28.8465 43.1987 27.9067C43.2097 27.8307 43.2493 27.6786 43.2493 27.6786V22.2663L42.985 20.5484C42.5743 17.8781 40.2766 15.9069 37.5748 15.9069Z" fill="#F9F8F9"/>
<path id="Vector_15" d="M43.249 27.6791C43.249 28.742 42.3864 29.6046 41.3235 29.6046H33.8254C32.762 29.6046 31.8999 28.7425 31.8999 27.6791V26.7001L31.3926 24.7357L31.8999 22.2656L32.1643 20.548C32.3569 19.3003 32.9598 18.2049 33.8251 17.3923L33.8254 26.652C33.8254 27.2191 34.2853 27.679 34.8524 27.679H43.249V27.6791Z" fill="#E8E8E8"/>
</g>
<g id="Group_4">
<path id="Vector_16" d="M26.2262 15.9069C24.7871 15.9069 23.4625 16.4662 22.4768 17.3925C22.4768 17.3925 22.2659 17.7864 22.131 17.9459C21.4973 18.6944 21.1066 19.5527 20.9483 20.5816L20.686 22.2909V27.3905C20.5515 28.4294 21.4661 29.4881 22.5297 29.4881L29.8112 29.5045C30.795 29.5045 31.7131 28.8465 31.8501 27.9067C31.8611 27.8307 31.9006 27.6786 31.9006 27.6786V22.2663L31.6363 20.5484C31.2256 17.8781 28.9279 15.9069 26.2262 15.9069Z" fill="#F9F8F9"/>
<path id="Vector_17" d="M31.9004 27.6791C31.9004 28.742 31.0378 29.6046 29.9749 29.6046H22.4768C21.4134 29.6046 20.5513 28.7425 20.5513 27.6791V26.7001L20.0439 24.7357L20.5513 22.2656L20.8157 20.548C21.0083 19.3003 21.6112 18.2049 22.4764 17.3923L22.4768 26.652C22.4768 27.2191 22.9366 27.679 23.5038 27.679H31.9004V27.6791Z" fill="#E8E8E8"/>
</g>
<g id="Group_5">
<path id="Vector_18" d="M16.3442 15.9069C15.7882 15.9069 15.2571 16.0283 14.7783 16.2476C14.7783 16.2476 14.4356 16.5256 14.27 16.6361C13.4168 17.2057 12.9444 18.0538 12.7787 19.1311L12.287 22.2662L12.2734 26.5574C12.2734 27.6208 13.1356 28.483 14.199 28.483L18.5526 28.5595C19.51 28.5595 20.3222 27.9099 20.4829 27.0054C20.5008 26.9052 20.5511 26.7002 20.5511 26.7002V22.2663L20.0637 19.0979C19.7813 17.2622 18.2015 15.9069 16.3442 15.9069Z" fill="#F9F8F9"/>
<path id="Vector_19" d="M20.5514 26.6996C20.5514 27.7638 19.6888 28.6252 18.6259 28.6252H14.0624C12.9995 28.6252 12.1368 27.7638 12.1368 26.6996L11.8613 24.6211L12.1368 22.2658L12.6246 19.0976C12.8223 17.8113 13.6566 16.7612 14.7785 16.2477L14.3024 20.3479C14.1432 21.7241 14.0624 23.1079 14.0624 24.493V25.5443C14.0624 26.1823 14.5797 26.6996 15.2177 26.6996H20.5514Z" fill="#E8E8E8"/>
</g>
<g id="Group_6">
<path id="Vector_20" d="M7.93032 15.9069C7.32236 15.9069 6.74431 16.052 6.23161 16.3116C6.23161 16.3116 6.03238 16.5686 5.91659 16.6443C5.04791 17.2125 4.55613 18.0305 4.38848 19.1202L4.15857 20.4588C3.96974 21.6861 3.875 22.9258 3.875 24.1676L3.88681 27.2614C3.88681 28.0104 4.32121 28.6914 5.00029 29.0073L6.6922 29.8158C7.47705 30.1809 8.38295 30.1809 9.1678 29.8158L10.9325 28.9855C11.6117 28.6696 12.025 28.1968 12.025 27.4478L12.1372 26.643V22.2662L11.6498 19.0977C11.3675 17.2622 9.78782 15.9069 7.93032 15.9069Z" fill="#F9F8F9"/>
<path id="Vector_21" d="M12.137 26.6432V27.398C12.137 28.1464 11.7031 28.828 11.024 29.1438L9.16778 30.0065C8.38344 30.3723 7.47716 30.3723 6.69282 30.0065L4.8366 29.1438C4.15752 28.828 3.72363 28.1464 3.72363 27.398V24.131C3.72363 22.8897 3.81863 21.6496 4.00733 20.4224L4.21144 19.0976C4.40142 17.8627 5.17793 16.8444 6.23184 16.3118L5.9882 19.644C5.94378 20.251 5.88037 20.8563 5.8081 21.4607C5.70232 22.3462 5.64917 23.2414 5.64917 24.1311V26.7429C5.64917 27.1426 5.88101 27.5058 6.24327 27.6743L7.5054 28.2608C7.6389 28.3237 7.78267 28.3558 7.9303 28.3558C8.07921 28.3558 8.2217 28.3237 8.35649 28.2608L12.137 26.6432Z" fill="#E8E8E8"/>
</g>
<g id="Group_7">
<path id="Vector_22" d="M55.8004 15.9069C55.1925 15.9069 54.6144 16.052 54.1017 16.3116C54.1017 16.3116 53.9025 16.5686 53.7867 16.6443C52.918 17.2125 52.4262 18.0305 52.2586 19.1202L52.0287 20.4588C51.8399 21.6861 51.7451 22.9258 51.7451 24.1676L51.7569 27.2614C51.7569 28.0104 52.1913 28.6914 52.8704 29.0073L54.5623 29.8158C55.3472 30.1809 56.2531 30.1809 57.0379 29.8158L58.8026 28.9855C59.4818 28.6696 59.8952 28.1968 59.8952 27.4478L60.0074 26.643V24.3278C60.0074 22.9554 59.9026 21.585 59.6939 20.2287L59.5199 19.0979C59.2377 17.2622 57.6579 15.9069 55.8004 15.9069Z" fill="#F9F8F9"/>
<path id="Vector_23" d="M60.0071 26.6432V27.398C60.0071 28.1464 59.5732 28.828 58.8941 29.1438L57.0379 30.0065C56.2536 30.3723 55.3473 30.3723 54.5629 30.0065L52.7067 29.1438C52.0276 28.828 51.5938 28.1464 51.5938 27.398V24.131C51.5938 22.8897 51.6887 21.6496 51.8774 20.4224L52.0816 19.0976C52.2715 17.8627 53.048 16.8444 54.102 16.3118L53.8583 19.644C53.8139 20.251 53.7505 20.8563 53.6782 21.4607C53.5724 22.3462 53.5193 23.2414 53.5193 24.1311V26.7429C53.5193 27.1426 53.7511 27.5058 54.1134 27.6743L55.3755 28.2608C55.509 28.3237 55.6528 28.3558 55.8004 28.3558C55.9493 28.3558 56.0918 28.3237 56.2266 28.2608L60.0071 26.6432Z" fill="#E8E8E8"/>
</g>
</g>
</g>
<defs>
<clipPath id="clip0_96_2238">
<rect width="63.8" height="63.8" fill="white"/>
</clipPath>
</defs>
</svg>
